<svg xmlns="http://www.w3.org/2000/svg" viewBox="0 0 16.02 14.89"><defs><style>.cls-1{fill:#545454;fill-rule:evenodd;}</style></defs><g id="Layer_2" data-name="Layer 2"><g id="Layer_1-2" data-name="Layer 1"><path class="cls-1" d="M14.12,9.84a2.75,2.75,0,0,0-2.36-.53c-.61.25-1,1.21-1.4,1.7a.61.61,0,0,1-.77.17A10.73,10.73,0,0,1,4.25,6.6a.66.66,0,0,1,.08-.9,3.49,3.49,0,0,0,1-1.57,3.42,3.42,0,0,0-.43-1.87A4.36,4.36,0,0,0,3.49.19a1.88,1.88,0,0,0-2.05.3A4.18,4.18,0,0,0,0,3.79a4.56,4.56,0,0,0,.13,1,8.79,8.79,0,0,0,1,2.31c.33.55.67,1.09,1.05,1.6A16.31,16.31,0,0,0,6.72,13,13.65,13.65,0,0,0,9.56,14.3a6.25,6.25,0,0,0,3.3.52,4,4,0,0,0,3-2.22A2,2,0,0,0,16,11.46C15.82,10.68,14.76,10.22,14.12,9.84Z"/></g></g></svg>