<?xml version="1.0" encoding="utf-8"?>
<!-- Generator: Adobe Illustrator 25.4.1, SVG Export Plug-In . SVG Version: 6.00 Build 0)  -->
<svg version="1.1" xmlns="http://www.w3.org/2000/svg" xmlns:xlink="http://www.w3.org/1999/xlink" x="0px" y="0px"
	 viewBox="0 0 20.9 30" style="enable-background:new 0 0 20.9 30;" xml:space="preserve">
<style type="text/css">
	.st0{fill:none;stroke:#FFFFFF;stroke-linecap:round;stroke-linejoin:round;}
</style>
<g id="Layer_1">
	<g id="Layer_2_00000167357788533882053730000006064403895963543711_">
		<g id="Layer_1-2">
			<polyline class="st0" points="15.6,21.5 17.4,21.5 20.4,29.5 0.5,29.5 3.5,21.5 5.3,21.5 			"/>
			<path class="st0" d="M10.4,10.4c-1.4,0-2.6-1.1-2.6-2.6c0-1.4,1.1-2.6,2.6-2.6S13,6.3,13,7.7c0,0,0,0,0,0
				C13,9.2,11.9,10.3,10.4,10.4z"/>
			<path class="st0" d="M18.5,8.5c0,4.4-8,16.6-8,16.6s-8-12.2-8-16.6c0-4.4,3.6-8,8-8S18.5,4.1,18.5,8.5L18.5,8.5z"/>
		</g>
	</g>
</g>
<g id="Layer_2">
</g>
</svg>
