<?xml version="1.0" encoding="utf-8"?>
<!-- Generator: Adobe Illustrator 25.4.1, SVG Export Plug-In . SVG Version: 6.00 Build 0)  -->
<svg version="1.1" id="Layer_1" xmlns="http://www.w3.org/2000/svg" xmlns:xlink="http://www.w3.org/1999/xlink" x="0px" y="0px"
	 viewBox="0 0 29 29.2" style="enable-background:new 0 0 29 29.2;" xml:space="preserve">
<style type="text/css">
	.st0{fill:none;stroke:#FFFFFF;stroke-linecap:round;stroke-linejoin:round;}
</style>
<g id="Layer_2_00000139990245361125965330000009115401220947306624_">
	<g id="Layer_1-2">
		<path class="st0" d="M19.2,18c-0.2-0.2-0.6-0.2-0.9,0l-1.9,1.8l-0.1,0.1c-1.8,0.9-8.4-6.1-7.1-7.4l1.9-1.8c0.2-0.2,0.2-0.6,0-0.8
			c0,0,0,0,0,0L5.1,3.5C5,3.4,4.8,3.3,4.6,3.3c-0.2,0-0.3,0.1-0.4,0.2c-3.1,3-8,6,3.5,17.7C19,32.7,22.2,28.4,25.4,25
			c0.2-0.2,0.2-0.6,0-0.8L19.2,18z"/>
		<path class="st0" d="M24.3,13.5c0.2-4.7-3.5-8.6-8.1-8.7c-0.2,0-0.4,0-0.6,0"/>
		<path class="st0" d="M28.5,13.5c0.2-7-5.3-12.8-12.3-13c-0.2,0-0.4,0-0.7,0"/>
		<path class="st0" d="M15.6,9c2.3-0.2,4.3,1.6,4.5,3.9c0,0.2,0,0.4,0,0.6"/>
	</g>
</g>
</svg>
