<svg id="svg" version="1.1" xmlns="http://www.w3.org/2000/svg" xmlns:xlink="http://www.w3.org/1999/xlink" width="400" height="400.407747196738" viewBox="0, 0, 400,400.407747196738"><g id="svgg"><path id="path0" d="M184.500 0.287 C 185.105 0.378,186.095 0.378,186.700 0.287 C 187.305 0.195,186.810 0.120,185.600 0.120 C 184.390 0.120,183.895 0.195,184.500 0.287 M75.800 1.266 C 76.240 1.508,77.058 2.088,77.619 2.554 C 78.179 3.019,78.046 2.815,77.324 2.100 C 76.602 1.385,75.784 0.805,75.506 0.812 C 75.228 0.819,75.360 1.023,75.800 1.266 M66.267 4.678 C 64.250 6.590,56.130 14.645,48.223 22.578 C 40.316 30.510,35.276 35.661,37.023 34.024 C 40.891 30.401,70.307 1.200,70.089 1.200 C 70.004 1.200,68.284 2.765,66.267 4.678 M81.400 9.200 C 82.176 10.740,82.900 12.000,83.010 12.000 C 83.120 12.000,82.576 10.740,81.800 9.200 C 81.024 7.660,80.300 6.400,80.190 6.400 C 80.080 6.400,80.624 7.660,81.400 9.200 M84.651 15.312 C 85.229 16.461,85.860 17.460,86.053 17.534 C 86.247 17.608,86.303 17.833,86.179 18.034 C 86.055 18.235,86.154 18.400,86.400 18.400 C 86.646 18.400,86.736 18.580,86.600 18.800 C 86.464 19.020,86.524 19.200,86.733 19.200 C 86.942 19.200,87.226 19.650,87.364 20.200 C 87.502 20.750,87.807 21.200,88.041 21.200 C 88.551 21.200,88.635 21.410,86.400 17.090 C 85.410 15.177,84.375 13.524,84.100 13.418 C 83.820 13.310,84.063 14.146,84.651 15.312 M252.604 14.807 C 252.742 15.030,253.023 15.109,253.228 14.983 C 253.432 14.856,253.600 14.954,253.600 15.200 C 253.600 15.446,253.768 15.544,253.972 15.417 C 254.177 15.291,254.460 15.373,254.600 15.600 C 254.740 15.827,255.023 15.909,255.228 15.783 C 255.432 15.656,255.600 15.705,255.600 15.891 C 255.600 16.077,256.005 16.249,256.500 16.272 C 257.067 16.299,256.660 15.969,255.400 15.382 C 253.238 14.374,252.205 14.161,252.604 14.807 M257.600 16.761 C 257.600 16.959,258.140 17.310,258.800 17.540 C 260.259 18.049,260.403 17.512,258.981 16.864 C 257.755 16.305,257.600 16.294,257.600 16.761 M262.000 18.736 C 262.000 19.027,263.708 20.000,264.219 20.000 C 264.795 20.000,264.248 19.259,263.381 18.864 C 262.167 18.311,262.000 18.295,262.000 18.736 M273.653 24.586 C 273.755 24.689,275.090 25.466,276.620 26.314 C 278.149 27.161,280.435 28.444,281.700 29.165 C 282.965 29.886,284.000 30.380,284.000 30.262 C 284.000 30.017,274.175 24.400,273.747 24.400 C 273.593 24.400,273.550 24.484,273.653 24.586 M90.800 26.629 C 90.800 26.963,92.846 30.400,93.045 30.400 C 93.138 30.400,92.757 29.500,92.200 28.400 C 91.289 26.602,90.800 25.983,90.800 26.629 M183.700 29.076 C 184.085 29.176,184.715 29.176,185.100 29.076 C 185.485 28.975,185.170 28.893,184.400 28.893 C 183.630 28.893,183.315 28.975,183.700 29.076 M94.067 32.702 C 94.843 34.461,98.965 41.969,99.087 41.846 C 99.277 41.656,94.421 32.400,94.131 32.400 C 94.022 32.400,93.993 32.536,94.067 32.702 M294.400 37.200 C 294.400 37.420,294.670 37.600,295.000 37.600 C 295.330 37.600,295.600 37.780,295.600 38.000 C 295.600 38.220,295.851 38.400,296.157 38.400 C 296.464 38.400,296.818 38.670,296.945 39.000 C 297.190 39.640,298.000 39.834,298.000 39.253 C 298.000 38.927,295.059 36.800,294.609 36.800 C 294.494 36.800,294.400 36.980,294.400 37.200 M31.578 39.100 L 30.200 40.600 31.700 39.222 C 32.525 38.463,33.200 37.788,33.200 37.722 C 33.200 37.416,32.862 37.704,31.578 39.100 M230.600 38.000 C 231.040 38.189,231.670 38.344,232.000 38.344 C 232.378 38.344,232.304 38.217,231.800 38.000 C 231.360 37.811,230.730 37.656,230.400 37.656 C 230.022 37.656,230.096 37.783,230.600 38.000 M298.400 39.836 C 298.400 40.229,300.165 41.572,300.700 41.587 C 300.975 41.594,301.200 41.761,301.200 41.957 C 301.200 42.154,301.461 42.414,301.780 42.537 C 302.838 42.943,302.016 41.829,300.423 40.700 C 298.867 39.597,298.400 39.397,298.400 39.836 M241.600 41.957 C 241.600 42.401,242.831 42.903,243.146 42.588 C 243.273 42.461,243.112 42.189,242.788 41.984 C 242.040 41.511,241.600 41.501,241.600 41.957 M243.600 42.757 C 243.600 43.201,244.831 43.703,245.146 43.388 C 245.273 43.261,245.112 42.989,244.788 42.784 C 244.040 42.311,243.600 42.301,243.600 42.757 M245.600 43.536 C 245.600 43.827,247.308 44.800,247.819 44.800 C 248.395 44.800,247.848 44.059,246.981 43.664 C 245.767 43.111,245.600 43.095,245.600 43.536 M248.679 44.673 C 248.519 44.932,249.204 45.447,250.380 45.953 C 252.828 47.006,253.358 47.031,251.825 46.020 C 251.179 45.594,250.504 45.336,250.325 45.446 C 250.146 45.557,250.000 45.446,250.000 45.200 C 250.000 44.954,249.835 44.855,249.634 44.979 C 249.433 45.103,249.196 44.988,249.107 44.722 C 248.996 44.388,248.864 44.373,248.679 44.673 M305.446 45.272 C 307.219 46.611,307.562 46.717,306.216 45.511 C 305.547 44.912,304.841 44.417,304.646 44.411 C 304.451 44.405,304.811 44.792,305.446 45.272 M101.600 47.200 C 102.049 48.080,102.506 48.800,102.616 48.800 C 102.726 48.800,102.449 48.080,102.000 47.200 C 101.551 46.320,101.094 45.600,100.984 45.600 C 100.874 45.600,101.151 46.320,101.600 47.200 M262.400 51.634 C 266.091 54.013,274.273 58.487,273.380 57.639 C 272.811 57.098,262.424 51.196,262.089 51.224 C 261.930 51.236,262.070 51.421,262.400 51.634 M105.257 53.926 C 105.996 55.315,106.998 57.205,107.484 58.126 C 107.970 59.047,108.544 60.006,108.760 60.257 C 108.976 60.509,109.043 60.824,108.909 60.957 C 108.776 61.091,108.887 61.200,109.157 61.200 C 109.427 61.200,109.536 61.380,109.400 61.600 C 109.264 61.820,109.354 62.000,109.600 62.000 C 109.846 62.000,109.965 62.135,109.866 62.300 C 109.766 62.465,109.935 62.832,110.242 63.116 C 111.508 64.286,106.117 53.713,104.676 52.200 C 104.212 51.712,104.438 52.386,105.257 53.926 M314.800 52.622 C 314.800 52.962,316.515 54.370,316.949 54.387 C 317.141 54.394,317.066 54.120,316.782 53.778 C 316.186 53.061,314.800 52.252,314.800 52.622 M318.000 55.436 C 318.000 55.743,319.577 57.090,320.600 57.657 C 321.051 57.907,320.798 57.467,320.022 56.650 C 318.747 55.309,318.000 54.860,318.000 55.436 M322.000 58.964 C 322.000 59.055,325.060 62.163,328.800 65.873 C 332.540 69.582,335.600 72.554,335.600 72.477 C 335.600 72.400,332.675 69.291,329.100 65.569 C 323.369 59.601,322.000 58.328,322.000 58.964 M281.200 63.140 C 281.200 63.508,282.939 64.800,283.435 64.800 C 283.848 64.800,282.745 63.599,281.933 63.164 C 281.504 62.935,281.200 62.925,281.200 63.140 M111.200 65.053 C 111.200 65.401,112.823 68.000,113.041 68.000 C 113.137 68.000,112.849 67.280,112.400 66.400 C 111.649 64.927,111.200 64.424,111.200 65.053 M284.000 65.096 C 284.000 65.594,289.635 69.698,289.923 69.410 C 290.063 69.271,289.912 68.993,289.588 68.794 C 288.498 68.121,287.531 67.405,286.463 66.478 C 285.106 65.300,284.000 64.680,284.000 65.096 M291.400 71.030 C 292.060 71.580,293.500 72.668,294.600 73.447 L 296.600 74.863 294.938 73.331 C 292.509 71.093,291.081 69.998,290.613 70.014 C 290.386 70.022,290.740 70.479,291.400 71.030 M116.200 74.400 C 116.976 75.940,117.700 77.200,117.810 77.200 C 117.920 77.200,117.376 75.940,116.600 74.400 C 115.824 72.860,115.100 71.600,114.990 71.600 C 114.880 71.600,115.424 72.860,116.200 74.400 M337.677 75.193 C 338.949 76.724,339.600 77.160,339.600 76.478 C 339.600 76.076,337.070 73.600,336.658 73.600 C 336.491 73.600,336.950 74.317,337.677 75.193 M297.200 75.325 C 297.200 75.394,297.785 75.979,298.500 76.625 L 299.800 77.800 298.625 76.500 C 297.530 75.288,297.200 75.016,297.200 75.325 M231.004 77.607 C 231.142 77.830,231.423 77.909,231.628 77.783 C 231.832 77.656,232.000 77.705,232.000 77.891 C 232.000 78.077,232.405 78.257,232.900 78.291 C 233.776 78.350,233.773 78.337,232.800 77.790 C 231.622 77.129,230.647 77.029,231.004 77.607 M120.200 82.000 C 122.186 85.960,123.515 88.080,122.268 85.300 C 121.220 82.964,118.381 77.600,118.192 77.600 C 118.083 77.600,118.986 79.580,120.200 82.000 M340.409 77.809 C 340.425 78.500,341.935 80.199,342.251 79.882 C 342.420 79.714,342.072 79.090,341.479 78.497 C 340.885 77.904,340.404 77.594,340.409 77.809 M302.286 80.019 C 303.433 81.197,304.456 82.077,304.560 81.973 C 304.664 81.869,303.725 80.905,302.475 79.830 L 300.200 77.876 302.286 80.019 M234.000 78.800 C 234.000 79.020,234.135 79.214,234.300 79.231 C 234.820 79.284,235.771 79.513,236.600 79.786 C 237.040 79.931,236.770 79.686,236.000 79.241 C 234.406 78.321,234.000 78.232,234.000 78.800 M342.800 80.635 C 342.800 81.337,343.917 82.616,344.245 82.288 C 344.416 82.117,344.161 81.583,343.678 81.100 C 343.195 80.617,342.800 80.408,342.800 80.635 M345.002 83.602 C 345.402 84.044,345.815 84.318,345.921 84.212 C 346.190 83.943,345.192 82.800,344.689 82.800 C 344.462 82.800,344.603 83.161,345.002 83.602 M0.120 85.200 C 0.120 86.410,0.195 86.905,0.287 86.300 C 0.378 85.695,0.378 84.705,0.287 84.100 C 0.195 83.495,0.120 83.990,0.120 85.200 M252.000 88.108 C 252.543 88.696,260.912 94.022,261.060 93.874 C 261.154 93.779,259.559 92.625,257.515 91.308 C 254.017 89.053,251.552 87.623,252.000 88.108 M311.600 89.517 C 311.600 89.921,314.928 93.200,315.339 93.200 C 315.509 93.200,314.889 92.300,313.961 91.200 C 312.384 89.330,311.600 88.771,311.600 89.517 M126.029 93.100 C 126.734 94.475,127.471 95.600,127.666 95.600 C 128.013 95.600,127.077 93.502,126.344 92.638 C 126.140 92.397,125.697 91.840,125.359 91.400 C 125.022 90.960,125.323 91.725,126.029 93.100 M352.261 92.900 C 353.532 94.959,358.992 102.627,359.264 102.734 C 359.452 102.808,359.502 103.034,359.377 103.237 C 359.252 103.440,359.430 103.713,359.772 103.845 C 360.115 103.976,360.304 104.233,360.191 104.414 C 359.954 104.799,360.748 105.385,361.070 105.063 C 361.302 104.832,359.643 102.291,359.114 102.067 C 358.942 101.993,358.800 101.687,358.800 101.387 C 358.800 101.086,358.567 100.696,358.283 100.520 C 357.998 100.344,356.530 98.445,355.020 96.300 C 353.511 94.155,352.203 92.400,352.114 92.400 C 352.025 92.400,352.092 92.625,352.261 92.900 M0.493 94.000 C 0.493 94.770,0.575 95.085,0.676 94.700 C 0.776 94.315,0.776 93.685,0.676 93.300 C 0.575 92.915,0.493 93.230,0.493 94.000 M316.400 94.330 C 316.400 94.512,316.879 95.097,317.463 95.630 L 318.527 96.600 317.588 95.300 C 316.612 93.948,316.400 93.775,316.400 94.330 M261.633 94.552 C 262.696 95.521,267.336 98.798,267.464 98.670 C 267.663 98.470,262.250 94.400,261.784 94.400 C 261.610 94.400,261.542 94.468,261.633 94.552 M318.800 97.064 C 318.800 97.282,319.295 97.897,319.900 98.430 L 321.000 99.400 320.000 98.200 C 319.450 97.540,318.955 96.925,318.900 96.833 C 318.845 96.742,318.800 96.845,318.800 97.064 M128.667 100.267 C 128.252 100.682,128.353 102.000,128.800 102.000 C 129.020 102.000,129.200 101.550,129.200 101.000 C 129.200 99.953,129.108 99.826,128.667 100.267 M208.800 101.000 C 209.570 101.297,210.470 101.539,210.800 101.539 C 211.130 101.539,210.770 101.297,210.000 101.000 C 209.230 100.703,208.330 100.461,208.000 100.461 C 207.670 100.461,208.030 100.703,208.800 101.000 M270.400 101.089 C 270.400 101.592,271.543 102.590,271.812 102.321 C 271.918 102.215,271.644 101.802,271.202 101.402 C 270.761 101.003,270.400 100.862,270.400 101.089 M272.800 103.118 C 272.800 103.474,274.231 104.872,275.095 105.361 C 275.415 105.542,275.515 105.443,275.376 105.082 C 275.115 104.401,272.800 102.637,272.800 103.118 M219.790 105.048 C 220.147 105.404,220.559 105.574,220.707 105.426 C 220.856 105.278,220.712 104.989,220.388 104.784 C 219.443 104.187,219.087 104.344,219.790 105.048 M126.543 108.204 C 125.579 110.161,125.452 110.650,125.996 110.310 C 126.679 109.883,128.400 106.790,128.400 105.989 C 128.400 105.023,127.700 105.857,126.543 108.204 M222.000 105.936 C 222.000 106.227,223.708 107.200,224.219 107.200 C 224.795 107.200,224.248 106.459,223.381 106.064 C 222.167 105.511,222.000 105.495,222.000 105.936 M361.293 106.400 C 361.568 106.840,361.935 107.200,362.110 107.200 C 362.285 107.200,362.235 106.840,362.000 106.400 C 361.765 105.960,361.397 105.600,361.183 105.600 C 360.967 105.600,361.016 105.957,361.293 106.400 M281.685 111.701 C 284.828 114.837,287.481 117.351,287.581 117.287 C 287.827 117.130,276.693 106.000,276.290 106.000 C 276.114 106.000,278.542 108.566,281.685 111.701 M228.772 109.404 C 230.186 110.166,231.431 110.702,231.538 110.595 C 231.779 110.354,231.881 110.417,229.091 109.094 C 225.872 107.568,225.691 107.744,228.772 109.404 M328.018 109.000 C 328.018 109.220,328.370 109.850,328.800 110.400 C 329.230 110.950,329.582 111.220,329.582 111.000 C 329.582 110.780,329.230 110.150,328.800 109.600 C 328.370 109.050,328.018 108.780,328.018 109.000 M330.000 111.805 C 330.000 112.266,333.744 117.600,334.068 117.600 C 334.420 117.600,333.414 115.824,332.544 114.911 C 332.288 114.641,331.686 113.786,331.207 113.011 C 330.398 111.703,330.000 111.305,330.000 111.805 M366.600 114.800 C 366.941 115.460,367.311 116.000,367.421 116.000 C 367.531 116.000,367.341 115.460,367.000 114.800 C 366.659 114.140,366.289 113.600,366.179 113.600 C 366.069 113.600,366.259 114.140,366.600 114.800 M240.389 115.881 C 245.720 119.756,248.490 121.644,248.634 121.499 C 248.799 121.334,241.239 116.034,240.000 115.447 C 239.670 115.291,239.845 115.486,240.389 115.881 M368.600 118.400 C 369.157 119.500,369.703 120.400,369.813 120.400 C 369.923 120.400,369.557 119.500,369.000 118.400 C 368.443 117.300,367.897 116.400,367.787 116.400 C 367.677 116.400,368.043 117.300,368.600 118.400 M289.184 119.523 C 289.681 120.251,290.193 120.740,290.322 120.611 C 290.452 120.482,290.045 119.886,289.419 119.288 L 288.280 118.200 289.184 119.523 M335.200 120.000 C 335.435 120.440,335.808 120.800,336.028 120.800 C 336.285 120.800,336.275 120.515,336.000 120.000 C 335.765 119.560,335.392 119.200,335.172 119.200 C 334.915 119.200,334.925 119.485,335.200 120.000 M371.484 123.786 C 372.297 125.428,373.027 126.707,373.106 126.627 C 373.285 126.449,370.465 120.800,370.198 120.800 C 370.093 120.800,370.671 122.144,371.484 123.786 M291.200 121.815 C 291.200 122.226,295.346 127.200,295.689 127.200 C 295.879 127.200,295.016 125.940,293.772 124.400 C 291.628 121.746,291.200 121.316,291.200 121.815 M250.400 123.208 C 251.170 123.894,252.160 124.632,252.600 124.847 C 253.040 125.063,252.770 124.678,252.000 123.992 C 251.230 123.306,250.240 122.568,249.800 122.353 C 249.360 122.137,249.630 122.522,250.400 123.208 M254.311 126.204 C 254.828 127.207,256.400 128.661,256.400 128.137 C 256.400 127.924,255.837 127.221,255.148 126.575 C 254.255 125.736,254.015 125.630,254.311 126.204 M339.605 126.447 C 339.602 126.583,341.306 130.003,343.392 134.047 C 345.477 138.091,347.187 141.263,347.192 141.095 C 347.202 140.729,342.115 130.553,340.646 128.000 C 340.076 127.010,339.607 126.311,339.605 126.447 M260.992 132.734 C 263.188 134.970,265.052 136.800,265.134 136.800 C 265.538 136.800,260.107 131.042,258.662 129.938 C 257.748 129.240,258.797 130.498,260.992 132.734 M374.428 129.800 C 374.428 130.020,374.686 130.650,375.000 131.200 C 375.314 131.750,375.572 132.020,375.572 131.800 C 375.572 131.580,375.314 130.950,375.000 130.400 C 374.686 129.850,374.428 129.580,374.428 129.800 M298.428 131.000 C 298.426 131.508,299.962 133.371,300.192 133.141 C 300.287 133.046,299.929 132.436,299.397 131.784 C 298.864 131.133,298.428 130.780,298.428 131.000 M101.298 134.872 C 100.649 135.822,99.908 137.050,99.651 137.600 C 99.257 138.443,99.263 138.481,99.692 137.842 C 99.971 137.425,100.797 136.282,101.527 135.303 C 102.257 134.323,102.770 133.436,102.666 133.333 C 102.562 133.229,101.946 133.921,101.298 134.872 M376.428 134.200 C 376.428 134.420,376.686 135.050,377.000 135.600 C 377.314 136.150,377.572 136.420,377.572 136.200 C 377.572 135.980,377.314 135.350,377.000 134.800 C 376.686 134.250,376.428 133.980,376.428 134.200 M302.247 136.400 C 302.416 136.730,303.667 138.807,305.027 141.016 C 306.388 143.224,307.976 145.969,308.557 147.116 C 309.138 148.262,309.703 149.200,309.812 149.200 C 310.148 149.200,307.634 144.445,305.385 140.826 C 303.418 137.661,301.532 135.001,302.247 136.400 M377.627 136.881 C 377.612 137.036,377.809 137.621,378.064 138.181 C 378.526 139.195,379.200 139.562,379.200 138.800 C 379.200 138.580,379.048 138.400,378.861 138.400 C 378.675 138.400,378.327 137.995,378.088 137.500 C 377.849 137.005,377.642 136.727,377.627 136.881 M265.632 137.400 C 265.638 137.915,269.908 142.626,270.148 142.383 C 270.248 142.283,269.271 141.030,267.978 139.600 C 266.685 138.170,265.629 137.180,265.632 137.400 M208.171 140.209 C 208.595 140.529,209.040 140.694,209.159 140.574 C 209.410 140.323,208.394 139.609,207.800 139.619 C 207.580 139.622,207.747 139.888,208.171 140.209 M378.806 139.900 C 378.817 140.447,379.553 141.381,379.788 141.146 C 380.103 140.831,379.601 139.600,379.157 139.600 C 378.961 139.600,378.803 139.735,378.806 139.900 M210.400 141.181 C 210.400 141.437,210.580 141.536,210.800 141.400 C 211.020 141.264,211.200 141.354,211.200 141.600 C 211.200 141.846,211.380 141.936,211.600 141.800 C 211.820 141.664,212.000 141.754,212.000 142.000 C 212.000 142.246,212.180 142.336,212.400 142.200 C 212.620 142.064,212.800 142.124,212.800 142.333 C 212.800 142.542,213.475 143.008,214.300 143.368 C 215.125 143.728,216.782 144.641,217.982 145.396 C 220.070 146.712,221.377 147.017,219.771 145.815 C 217.092 143.809,210.400 140.500,210.400 141.181 M379.606 141.900 C 379.617 142.447,380.353 143.381,380.588 143.146 C 380.903 142.831,380.401 141.600,379.957 141.600 C 379.761 141.600,379.603 141.735,379.606 141.900 M271.002 144.002 C 271.402 144.444,271.815 144.718,271.921 144.612 C 272.190 144.343,271.192 143.200,270.689 143.200 C 270.462 143.200,270.603 143.561,271.002 144.002 M380.709 143.825 C 380.554 143.979,380.640 144.487,380.899 144.953 C 381.158 145.419,381.332 145.935,381.285 146.100 C 381.238 146.265,381.391 146.400,381.624 146.400 C 381.857 146.400,381.944 146.568,381.817 146.772 C 381.691 146.977,381.770 147.258,381.993 147.396 C 382.576 147.756,382.446 146.838,381.665 145.072 C 381.293 144.232,380.863 143.670,380.709 143.825 M272.400 145.800 C 272.674 146.130,273.078 146.400,273.298 146.400 C 273.521 146.400,273.478 146.135,273.200 145.800 C 272.926 145.470,272.522 145.200,272.302 145.200 C 272.079 145.200,272.122 145.465,272.400 145.800 M13.206 148.033 C 13.209 148.345,13.390 148.870,13.607 149.200 C 13.921 149.676,13.977 149.616,13.878 148.910 C 13.735 147.887,13.197 147.184,13.206 148.033 M274.800 148.606 C 274.800 149.009,277.724 153.209,277.890 153.044 C 277.982 152.951,277.390 151.868,276.572 150.638 C 275.181 148.542,274.800 148.105,274.800 148.606 M278.400 153.786 C 278.400 154.205,280.006 156.800,280.265 156.800 C 280.375 156.800,280.059 156.125,279.563 155.300 C 278.458 153.462,278.400 153.387,278.400 153.786 M15.606 154.300 C 15.624 155.177,16.388 155.759,16.394 154.900 C 16.397 154.405,16.220 154.000,16.000 154.000 C 15.780 154.000,15.603 154.135,15.606 154.300 M234.988 158.787 C 236.952 160.761,238.648 162.285,238.758 162.175 C 239.020 161.914,232.339 155.200,231.817 155.200 C 231.597 155.200,233.024 156.814,234.988 158.787 M312.834 155.400 C 312.834 155.620,313.178 156.430,313.600 157.200 C 314.022 157.970,314.366 158.420,314.366 158.200 C 314.366 157.980,314.022 157.170,313.600 156.400 C 313.178 155.630,312.834 155.180,312.834 155.400 M16.400 156.181 C 16.400 156.281,16.609 156.821,16.864 157.381 C 17.512 158.803,18.049 158.659,17.540 157.200 C 17.197 156.215,16.400 155.503,16.400 156.181 M187.000 159.200 C 188.100 159.606,189.270 159.938,189.600 159.938 C 189.930 159.938,189.300 159.606,188.200 159.200 C 187.100 158.794,185.930 158.462,185.600 158.462 C 185.270 158.462,185.900 158.794,187.000 159.200 M17.606 159.100 C 17.617 159.647,18.353 160.581,18.588 160.346 C 18.903 160.031,18.401 158.800,17.957 158.800 C 17.761 158.800,17.603 158.935,17.606 159.100 M314.800 159.720 C 314.800 160.278,315.755 162.000,316.064 162.000 C 316.625 162.000,316.443 161.372,315.600 160.400 C 315.160 159.893,314.800 159.587,314.800 159.720 M98.848 160.800 C 98.842 161.130,99.083 161.940,99.386 162.600 C 100.093 164.145,100.103 163.426,99.400 161.600 C 99.103 160.830,98.855 160.470,98.848 160.800 M19.206 162.700 C 19.217 163.247,19.953 164.181,20.188 163.946 C 20.503 163.631,20.001 162.400,19.557 162.400 C 19.361 162.400,19.203 162.535,19.206 162.700 M316.006 162.700 C 316.017 163.247,316.753 164.181,316.988 163.946 C 317.303 163.631,316.801 162.400,316.357 162.400 C 316.161 162.400,316.003 162.535,316.006 162.700 M239.524 163.433 C 240.040 164.428,241.200 165.456,241.200 164.919 C 241.200 164.710,240.726 164.103,240.146 163.570 C 239.205 162.704,239.138 162.690,239.524 163.433 M199.200 164.179 C 199.200 164.289,199.740 164.659,200.400 165.000 C 201.060 165.341,201.600 165.531,201.600 165.421 C 201.600 165.311,201.060 164.941,200.400 164.600 C 199.740 164.259,199.200 164.069,199.200 164.179 M316.806 164.700 C 316.817 165.247,317.553 166.181,317.788 165.946 C 318.103 165.631,317.601 164.400,317.157 164.400 C 316.961 164.400,316.803 164.535,316.806 164.700 M202.000 165.723 C 202.000 165.817,202.697 166.355,203.549 166.919 C 204.401 167.483,205.598 168.407,206.208 168.972 C 207.351 170.032,208.000 170.272,208.000 169.636 C 208.000 169.436,206.875 168.568,205.500 167.707 C 202.157 165.615,202.000 165.526,202.000 165.723 M241.615 165.838 C 241.623 166.037,242.271 166.920,243.054 167.800 C 244.437 169.355,244.456 169.363,243.738 168.073 C 242.956 166.667,241.590 165.229,241.615 165.838 M317.826 166.757 C 317.676 167.001,317.754 167.200,318.000 167.200 C 318.246 167.200,318.344 167.368,318.217 167.572 C 318.091 167.777,318.170 168.058,318.393 168.196 C 318.887 168.501,318.920 167.609,318.444 166.857 C 318.204 166.479,318.017 166.449,317.826 166.757 M22.032 167.905 C 21.996 168.470,27.891 180.400,28.205 180.400 C 28.315 180.400,27.080 177.745,25.460 174.500 C 23.841 171.255,22.414 168.330,22.289 168.000 C 22.148 167.624,22.051 167.588,22.032 167.905 M286.427 168.700 C 286.442 168.865,287.075 170.260,287.833 171.800 C 288.591 173.340,289.103 174.240,288.971 173.800 C 288.839 173.360,288.673 172.716,288.602 172.369 C 288.531 172.023,288.106 171.135,287.657 170.398 C 287.208 169.660,286.933 168.909,287.044 168.728 C 287.156 168.548,287.057 168.400,286.824 168.400 C 286.591 168.400,286.412 168.535,286.427 168.700 M357.418 169.300 C 357.568 169.795,357.876 170.380,358.104 170.600 C 358.386 170.873,358.435 170.767,358.259 170.267 C 358.116 169.864,358.000 169.279,358.000 168.967 C 358.000 168.655,357.808 168.400,357.573 168.400 C 357.316 168.400,357.255 168.759,357.418 169.300 M208.400 170.372 C 208.400 170.576,209.227 171.301,210.237 171.983 C 211.248 172.665,212.002 173.006,211.913 172.740 C 211.825 172.474,211.406 172.064,210.982 171.829 C 210.559 171.593,209.974 171.085,209.683 170.700 C 209.115 169.948,208.400 169.765,208.400 170.372 M246.209 172.226 C 246.581 172.901,247.241 173.891,247.676 174.426 L 248.467 175.400 247.791 174.174 C 247.419 173.499,246.759 172.509,246.324 171.974 L 245.533 171.000 246.209 172.226 M216.192 177.140 C 219.651 180.666,220.941 181.783,219.376 179.900 C 217.638 177.808,214.916 175.079,213.800 174.308 C 213.140 173.853,214.216 175.127,216.192 177.140 M289.206 175.100 C 289.224 175.977,289.988 176.559,289.994 175.700 C 289.997 175.205,289.820 174.800,289.600 174.800 C 289.380 174.800,289.203 174.935,289.206 175.100 M104.800 175.524 C 104.800 176.091,105.925 177.409,106.186 177.147 C 106.325 177.009,106.168 176.625,105.838 176.295 C 105.508 175.965,105.350 175.584,105.486 175.448 C 105.622 175.311,105.523 175.200,105.267 175.200 C 105.010 175.200,104.800 175.346,104.800 175.524 M290.157 177.433 C 290.291 177.781,290.400 178.141,290.400 178.233 C 290.400 178.325,290.563 178.400,290.763 178.400 C 290.962 178.400,291.031 178.040,290.916 177.600 C 290.801 177.160,290.528 176.800,290.311 176.800 C 290.093 176.800,290.024 177.085,290.157 177.433 M252.275 182.900 C 253.749 185.815,254.921 188.335,254.878 188.500 C 254.835 188.665,254.991 188.800,255.224 188.800 C 255.457 188.800,255.544 188.968,255.417 189.172 C 255.291 189.377,255.370 189.658,255.593 189.796 C 255.817 189.934,256.000 189.858,256.000 189.627 C 256.000 188.846,253.496 183.600,253.123 183.600 C 252.919 183.600,252.855 183.435,252.979 183.234 C 253.103 183.033,253.046 182.808,252.852 182.734 C 252.659 182.660,251.935 181.475,251.244 180.100 C 250.554 178.725,249.900 177.600,249.791 177.600 C 249.683 177.600,250.801 179.985,252.275 182.900 M107.624 180.446 C 107.611 180.801,107.960 181.550,108.400 182.109 C 108.840 182.669,109.200 183.295,109.200 183.502 C 109.200 183.709,109.560 184.293,110.000 184.800 C 110.440 185.307,110.800 185.965,110.800 186.261 C 110.800 186.558,110.980 186.800,111.200 186.800 C 111.420 186.800,111.600 187.070,111.600 187.400 C 111.600 187.730,111.777 188.000,111.992 188.000 C 112.208 188.000,112.498 188.450,112.636 189.000 C 112.774 189.550,113.047 190.000,113.243 190.000 C 113.786 190.000,113.777 189.980,111.013 185.342 C 107.491 179.430,107.652 179.662,107.624 180.446 M220.400 181.514 C 220.400 181.713,220.786 182.219,221.258 182.638 C 222.110 183.395,222.113 183.394,221.656 182.522 C 221.146 181.550,220.400 180.951,220.400 181.514 M30.200 184.400 C 30.541 185.060,30.911 185.600,31.021 185.600 C 31.131 185.600,30.941 185.060,30.600 184.400 C 30.259 183.740,29.889 183.200,29.779 183.200 C 29.669 183.200,29.859 183.740,30.200 184.400 M33.227 189.777 C 33.184 190.379,39.253 200.400,39.660 200.400 C 40.028 200.400,39.858 200.051,38.391 197.800 C 37.961 197.140,37.482 196.330,37.327 196.000 C 37.172 195.670,36.810 195.162,36.522 194.871 C 36.235 194.581,36.000 194.086,36.000 193.771 C 36.000 193.457,35.823 193.200,35.608 193.200 C 35.392 193.200,35.102 192.750,34.964 192.200 C 34.826 191.650,34.580 191.200,34.418 191.200 C 34.255 191.200,33.927 190.795,33.688 190.300 C 33.449 189.805,33.242 189.570,33.227 189.777 M226.400 189.848 C 226.400 189.984,227.013 191.109,227.762 192.348 C 228.511 193.586,229.537 195.455,230.042 196.500 C 230.546 197.545,231.114 198.400,231.303 198.400 C 231.492 198.400,231.536 198.580,231.400 198.800 C 231.264 199.020,231.343 199.200,231.576 199.200 C 232.213 199.200,230.096 194.207,229.202 193.600 C 229.040 193.490,228.781 192.995,228.627 192.500 C 228.472 192.005,228.168 191.600,227.949 191.600 C 227.731 191.600,227.665 191.419,227.802 191.197 C 227.939 190.976,227.770 190.687,227.428 190.555 C 227.085 190.424,226.904 190.155,227.026 189.958 C 227.148 189.761,227.057 189.600,226.824 189.600 C 226.591 189.600,226.400 189.711,226.400 189.848 M117.407 196.300 C 119.196 199.117,125.717 208.017,125.876 207.858 C 125.974 207.760,124.540 205.636,122.689 203.140 C 120.838 200.643,118.822 197.835,118.209 196.900 C 117.595 195.965,117.007 195.200,116.901 195.200 C 116.795 195.200,117.022 195.695,117.407 196.300 M394.101 203.000 C 394.105 203.880,394.187 204.193,394.283 203.695 C 394.379 203.198,394.375 202.478,394.275 202.095 C 394.175 201.713,394.096 202.120,394.101 203.000 M40.800 202.800 C 41.035 203.240,41.408 203.600,41.628 203.600 C 41.885 203.600,41.875 203.315,41.600 202.800 C 41.365 202.360,40.992 202.000,40.772 202.000 C 40.515 202.000,40.525 202.285,40.800 202.800 M126.400 208.744 C 126.400 208.970,126.727 209.390,127.126 209.677 C 127.526 209.965,127.970 210.515,128.114 210.900 C 128.257 211.285,128.563 211.600,128.793 211.600 C 129.311 211.600,127.523 208.708,126.872 208.491 C 126.612 208.404,126.400 208.518,126.400 208.744 M394.514 211.000 C 394.517 212.100,394.595 212.503,394.687 211.895 C 394.779 211.286,394.777 210.386,394.682 209.895 C 394.587 209.403,394.511 209.900,394.514 211.000 M261.293 211.600 C 261.293 212.370,261.375 212.685,261.476 212.300 C 261.576 211.915,261.576 211.285,261.476 210.900 C 261.375 210.515,261.293 210.830,261.293 211.600 M46.400 211.033 C 46.400 211.465,53.714 222.020,53.891 221.842 C 53.987 221.746,52.831 219.897,51.321 217.733 C 49.810 215.570,48.161 213.125,47.655 212.300 C 46.789 210.889,46.400 210.496,46.400 211.033 M129.600 212.689 C 129.600 213.192,130.743 214.190,131.012 213.921 C 131.118 213.815,130.844 213.402,130.402 213.002 C 129.961 212.603,129.600 212.462,129.600 212.689 M131.600 215.200 C 131.835 215.640,132.230 216.000,132.476 216.000 C 132.722 216.000,132.598 215.640,132.200 215.200 C 131.802 214.760,131.408 214.400,131.324 214.400 C 131.240 214.400,131.365 214.760,131.600 215.200 M133.600 217.600 C 133.835 218.040,134.230 218.400,134.476 218.400 C 134.722 218.400,134.598 218.040,134.200 217.600 C 133.802 217.160,133.408 216.800,133.324 216.800 C 133.240 216.800,133.365 217.160,133.600 217.600 M135.984 220.323 C 136.481 221.051,136.993 221.540,137.122 221.411 C 137.252 221.282,136.845 220.686,136.219 220.088 L 135.080 219.000 135.984 220.323 M138.598 223.311 C 139.211 224.142,139.812 224.721,139.935 224.598 C 140.058 224.475,139.557 223.795,138.822 223.087 L 137.485 221.800 138.598 223.311 M141.113 226.200 C 141.638 227.216,143.600 229.068,143.600 228.548 C 143.600 228.333,142.947 227.537,142.150 226.778 C 141.275 225.946,140.864 225.717,141.113 226.200 M60.000 230.600 C 60.274 230.930,60.678 231.200,60.898 231.200 C 61.121 231.200,61.078 230.935,60.800 230.600 C 60.526 230.270,60.122 230.000,59.902 230.000 C 59.679 230.000,59.722 230.265,60.000 230.600 M144.800 230.272 C 144.800 230.749,149.129 235.005,149.369 234.764 C 149.473 234.660,148.488 233.527,147.179 232.246 C 145.871 230.964,144.800 230.076,144.800 230.272 M60.800 231.907 C 60.800 232.075,61.719 233.200,62.842 234.407 C 63.965 235.613,64.703 236.240,64.481 235.800 C 64.260 235.360,63.619 234.505,63.058 233.900 C 62.497 233.295,62.142 232.800,62.268 232.800 C 62.395 232.800,62.274 232.530,62.000 232.200 C 61.470 231.561,60.800 231.398,60.800 231.907 M65.220 237.000 C 65.221 237.220,65.768 238.030,66.436 238.800 C 67.105 239.570,67.465 239.840,67.237 239.400 C 66.621 238.209,65.218 236.540,65.220 237.000 M154.425 240.300 C 156.281 242.225,159.150 245.054,160.800 246.588 C 162.450 248.121,161.012 246.546,157.605 243.088 C 154.198 239.629,151.329 236.800,151.229 236.800 C 151.130 236.800,152.568 238.375,154.425 240.300 M75.200 249.800 C 75.717 250.350,76.202 250.800,76.279 250.800 C 76.356 250.800,76.124 250.350,75.763 249.800 C 75.403 249.250,74.917 248.800,74.684 248.800 C 74.451 248.800,74.683 249.250,75.200 249.800 M165.600 251.085 C 165.600 251.301,166.667 252.496,167.970 253.739 C 170.021 255.695,170.816 256.303,170.795 255.900 C 170.777 255.564,165.600 250.765,165.600 251.085 M77.041 252.135 C 77.459 252.707,77.957 253.181,78.149 253.187 C 78.645 253.205,77.438 251.479,76.807 251.269 C 76.481 251.160,76.569 251.486,77.041 252.135 M78.800 254.338 C 78.800 254.730,80.130 256.000,80.541 256.000 C 80.693 256.000,80.524 255.550,80.163 255.000 C 79.521 254.020,78.800 253.669,78.800 254.338 M80.867 256.752 C 81.044 257.219,83.547 259.901,85.205 261.400 L 86.533 262.600 85.437 261.123 C 84.834 260.311,84.219 259.591,84.070 259.523 C 83.922 259.456,83.296 258.725,82.680 257.900 C 81.683 256.565,80.516 255.826,80.867 256.752 M172.238 257.643 C 172.657 258.107,173.540 258.856,174.200 259.308 C 175.239 260.020,175.188 259.907,173.819 258.465 C 172.237 256.799,170.801 256.053,172.238 257.643 M175.788 260.781 C 175.918 260.991,176.604 261.562,177.312 262.050 L 178.600 262.936 177.425 261.668 C 176.339 260.495,175.246 259.903,175.788 260.781 M86.800 263.042 C 86.800 263.262,87.475 264.063,88.299 264.822 L 89.798 266.200 88.602 264.800 C 87.944 264.030,87.270 263.229,87.103 263.020 C 86.915 262.784,86.800 262.792,86.800 263.042 M182.089 266.066 C 182.174 266.322,182.684 266.809,183.222 267.148 L 184.200 267.763 183.230 266.682 C 182.183 265.514,181.844 265.331,182.089 266.066 M91.800 268.800 C 92.659 269.680,93.437 270.400,93.528 270.400 C 93.865 270.400,90.986 267.266,90.619 267.234 C 90.409 267.215,90.941 267.920,91.800 268.800 M186.800 269.889 C 186.800 270.392,187.943 271.390,188.212 271.121 C 188.318 271.015,188.044 270.602,187.602 270.202 C 187.161 269.803,186.800 269.662,186.800 269.889 M293.867 270.267 C 293.268 270.866,293.573 271.720,294.200 271.200 C 294.530 270.926,294.800 270.544,294.800 270.351 C 294.800 269.937,294.247 269.887,293.867 270.267 M188.868 271.605 C 188.967 271.901,189.369 272.336,189.761 272.571 C 190.154 272.807,191.123 273.585,191.916 274.300 C 193.799 275.999,194.528 275.990,192.761 274.289 C 190.895 272.493,188.648 270.943,188.868 271.605 M96.402 274.002 C 98.480 276.401,99.643 277.461,98.990 276.362 C 98.271 275.151,95.081 271.600,94.712 271.600 C 94.497 271.600,95.257 272.681,96.402 274.002 M315.600 273.460 C 315.600 273.657,317.445 274.885,319.700 276.190 C 321.955 277.495,324.385 278.904,325.100 279.321 C 325.815 279.738,326.400 279.985,326.400 279.871 C 326.400 279.756,324.375 278.472,321.900 277.016 C 319.425 275.561,316.995 274.084,316.500 273.736 C 316.005 273.388,315.600 273.263,315.600 273.460 M100.800 278.581 C 100.800 278.934,122.077 300.057,122.254 299.880 C 122.427 299.706,101.314 278.400,100.969 278.400 C 100.876 278.400,100.800 278.481,100.800 278.581 M198.800 279.400 C 199.545 279.950,200.255 280.394,200.378 280.386 C 200.749 280.362,198.228 278.404,197.822 278.402 C 197.615 278.401,198.055 278.850,198.800 279.400 M201.489 281.230 C 201.978 281.739,202.478 282.055,202.601 281.932 C 202.724 281.809,202.324 281.392,201.712 281.006 L 200.600 280.304 201.489 281.230 M336.890 286.147 C 337.191 286.448,337.834 286.820,338.319 286.974 C 338.803 287.128,339.200 287.402,339.200 287.584 C 339.200 287.765,339.650 288.026,340.200 288.164 C 340.750 288.302,341.200 288.592,341.200 288.808 C 341.200 289.023,341.457 289.200,341.771 289.200 C 342.086 289.200,342.627 289.484,342.975 289.832 C 343.323 290.180,343.810 290.397,344.058 290.314 C 344.306 290.231,342.788 289.137,340.685 287.882 C 336.818 285.574,335.895 285.152,336.890 286.147 M211.343 287.800 C 211.673 288.130,212.136 288.400,212.371 288.400 C 212.607 288.400,212.800 288.591,212.800 288.824 C 212.800 289.057,212.980 289.136,213.200 289.000 C 213.420 288.864,213.600 288.922,213.600 289.130 C 213.600 289.337,213.915 289.621,214.300 289.760 C 215.028 290.023,215.847 290.502,217.687 291.742 C 218.285 292.145,218.978 292.407,219.227 292.324 C 219.626 292.191,211.597 287.200,210.984 287.200 C 210.851 287.200,211.013 287.470,211.343 287.800 M345.167 290.960 C 345.936 291.887,347.200 292.549,347.200 292.024 C 347.200 291.802,346.615 291.318,345.900 290.948 C 344.675 290.315,344.633 290.316,345.167 290.960 M347.600 292.372 C 347.600 292.592,347.960 292.965,348.400 293.200 C 348.915 293.475,349.200 293.485,349.200 293.228 C 349.200 293.008,348.840 292.635,348.400 292.400 C 347.885 292.125,347.600 292.115,347.600 292.372 M220.000 292.753 C 220.000 293.122,226.840 296.815,227.464 296.782 C 227.649 296.773,227.080 296.388,226.200 295.927 C 225.320 295.467,224.510 294.958,224.400 294.797 C 224.029 294.255,220.000 292.383,220.000 292.753 M349.600 293.490 C 349.600 293.665,349.960 294.032,350.400 294.307 C 350.843 294.584,351.200 294.633,351.200 294.417 C 351.200 294.203,350.840 293.835,350.400 293.600 C 349.960 293.365,349.600 293.315,349.600 293.490 M264.614 299.246 C 262.399 300.912,262.335 301.071,264.323 299.976 C 266.013 299.045,267.237 297.973,266.549 298.027 C 266.357 298.042,265.486 298.591,264.614 299.246 M357.200 298.137 C 357.200 298.238,359.315 299.537,361.900 301.024 C 367.570 304.287,367.200 304.088,367.200 303.863 C 367.200 303.762,365.085 302.463,362.500 300.976 C 356.830 297.713,357.200 297.912,357.200 298.137 M232.400 298.966 C 232.950 299.260,233.850 299.612,234.400 299.749 C 234.950 299.886,234.680 299.652,233.800 299.229 C 231.990 298.358,230.868 298.148,232.400 298.966 M126.000 303.536 C 127.430 304.852,128.670 305.860,128.756 305.776 C 128.946 305.588,124.940 301.928,124.044 301.472 C 123.690 301.291,124.570 302.220,126.000 303.536 M131.686 308.620 C 132.723 309.688,133.660 310.473,133.768 310.366 C 133.875 310.258,133.027 309.384,131.882 308.425 L 129.800 306.679 131.686 308.620 M378.400 310.824 C 378.400 311.057,378.580 311.136,378.800 311.000 C 379.020 310.864,379.200 310.954,379.200 311.200 C 379.200 311.446,379.380 311.536,379.600 311.400 C 379.820 311.264,380.000 311.343,380.000 311.576 C 380.000 311.809,380.270 312.000,380.600 312.000 C 380.930 312.000,381.200 312.177,381.200 312.392 C 381.200 312.608,381.650 312.898,382.200 313.036 C 382.750 313.174,383.200 313.435,383.200 313.616 C 383.200 313.798,383.605 314.072,384.100 314.227 C 384.595 314.381,385.090 314.630,385.200 314.780 C 385.310 314.930,386.480 315.640,387.800 316.358 C 389.120 317.076,389.840 317.387,389.400 317.050 C 388.960 316.713,388.330 316.193,388.000 315.894 C 386.056 314.137,378.400 310.093,378.400 310.824 M135.687 312.219 C 136.504 313.067,137.256 313.677,137.357 313.576 C 137.458 313.475,136.789 312.782,135.871 312.035 L 134.200 310.679 135.687 312.219 M139.015 315.315 C 140.170 316.762,140.800 317.162,140.800 316.447 C 140.800 316.254,140.132 315.585,139.315 314.962 L 137.830 313.830 139.015 315.315 M141.600 317.503 C 141.600 317.912,143.312 319.600,143.726 319.600 C 144.377 319.600,143.908 318.789,142.800 318.000 C 142.140 317.530,141.600 317.306,141.600 317.503 M145.481 321.112 C 147.892 323.159,149.200 324.061,149.200 323.676 C 149.200 323.465,148.762 323.005,148.226 322.654 C 147.690 322.303,146.798 321.562,146.244 321.008 C 145.690 320.454,145.003 320.005,144.718 320.012 C 144.433 320.018,144.777 320.513,145.481 321.112 M154.400 328.142 C 154.400 328.451,161.622 334.112,161.795 333.938 C 161.883 333.850,160.577 332.703,158.894 331.389 C 154.956 328.316,154.400 327.915,154.400 328.142 M163.600 335.557 C 164.370 336.229,165.157 336.783,165.349 336.789 C 165.950 336.808,164.920 335.832,163.531 335.068 L 162.200 334.335 163.600 335.557 M166.074 337.621 C 166.299 338.296,168.800 339.747,168.800 339.202 C 168.800 338.940,168.452 338.634,168.028 338.523 C 167.603 338.412,167.159 338.069,167.040 337.761 C 166.793 337.117,165.861 336.982,166.074 337.621 M174.984 344.197 C 175.636 344.729,176.246 345.087,176.341 344.992 C 176.571 344.762,174.708 343.226,174.200 343.228 C 173.980 343.228,174.333 343.664,174.984 344.197 M176.800 345.357 C 176.800 345.649,188.210 353.556,189.077 353.865 C 189.475 354.007,187.100 352.242,183.800 349.943 C 177.025 345.223,176.800 345.075,176.800 345.357 M195.947 358.376 C 196.687 359.071,197.407 359.526,197.546 359.387 C 197.807 359.126,196.798 358.251,195.400 357.527 C 194.960 357.299,195.206 357.681,195.947 358.376 M198.000 359.572 C 198.000 359.792,198.360 360.165,198.800 360.400 C 199.315 360.675,199.600 360.685,199.600 360.428 C 199.600 360.208,199.240 359.835,198.800 359.600 C 198.285 359.325,198.000 359.315,198.000 359.572 M200.000 360.985 C 200.000 361.202,207.899 365.924,210.380 367.190 C 211.317 367.668,211.980 367.892,211.854 367.687 C 211.728 367.483,210.449 366.713,209.012 365.976 C 207.575 365.239,206.400 364.493,206.400 364.318 C 206.400 364.143,206.143 364.000,205.829 364.000 C 205.514 364.000,205.019 363.765,204.729 363.478 C 204.438 363.190,203.930 362.828,203.600 362.673 C 203.270 362.518,202.460 362.046,201.800 361.625 C 200.592 360.853,200.000 360.643,200.000 360.985 M214.000 368.979 C 214.000 369.089,214.540 369.459,215.200 369.800 C 215.860 370.141,216.400 370.331,216.400 370.221 C 216.400 370.111,215.860 369.741,215.200 369.400 C 214.540 369.059,214.000 368.869,214.000 368.979 M218.400 371.399 C 218.400 371.663,231.248 378.085,231.424 377.909 C 231.501 377.833,228.601 376.293,224.982 374.487 C 221.362 372.681,218.400 371.291,218.400 371.399 M233.600 379.157 C 233.600 379.601,234.831 380.103,235.146 379.788 C 235.273 379.661,235.112 379.389,234.788 379.184 C 234.040 378.711,233.600 378.701,233.600 379.157 M238.000 381.195 C 238.000 381.471,238.941 382.000,239.433 382.000 C 239.979 382.000,239.466 381.258,238.800 381.084 C 238.360 380.969,238.000 381.019,238.000 381.195 M240.800 382.395 C 240.800 382.671,241.741 383.200,242.233 383.200 C 242.779 383.200,242.266 382.458,241.600 382.284 C 241.160 382.169,240.800 382.219,240.800 382.395 M244.000 384.000 C 244.776 384.501,245.200 384.501,245.200 384.000 C 245.200 383.780,244.795 383.603,244.300 383.606 C 243.572 383.611,243.515 383.686,244.000 384.000 M309.500 400.282 C 309.995 400.378,310.805 400.378,311.300 400.282 C 311.795 400.187,311.390 400.109,310.400 400.109 C 309.410 400.109,309.005 400.187,309.500 400.282 M319.100 400.282 C 319.595 400.378,320.405 400.378,320.900 400.282 C 321.395 400.187,320.990 400.109,320.000 400.109 C 319.010 400.109,318.605 400.187,319.100 400.282 " stroke="none" fill="#cdcdcd" fill-rule="evenodd"></path><path id="path1" d="M182.095 14.471 L 182.200 28.542 185.000 28.643 C 186.540 28.698,188.570 28.748,189.511 28.755 C 190.452 28.761,191.440 28.901,191.705 29.065 C 191.971 29.229,192.772 29.313,193.484 29.252 C 194.197 29.191,194.977 29.262,195.217 29.411 C 195.458 29.559,196.755 29.757,198.099 29.851 C 199.443 29.945,200.753 30.195,201.009 30.407 C 201.264 30.619,201.571 30.695,201.690 30.576 C 201.992 30.275,209.286 31.573,209.830 32.025 C 210.074 32.227,210.372 32.295,210.492 32.174 C 210.767 31.900,218.043 33.571,218.637 34.045 C 218.877 34.236,219.161 34.305,219.269 34.198 C 219.376 34.091,220.440 34.305,221.632 34.675 C 222.824 35.045,223.890 35.369,224.000 35.396 C 224.110 35.423,224.830 35.591,225.600 35.770 C 226.370 35.948,227.180 36.203,227.400 36.336 C 227.620 36.469,227.980 36.606,228.200 36.642 C 229.179 36.798,239.476 40.498,244.200 42.391 C 278.716 56.217,309.463 81.035,331.682 113.000 C 338.415 122.687,350.975 145.946,350.173 147.243 C 350.052 147.439,350.118 147.600,350.319 147.600 C 351.114 147.600,357.825 166.436,357.413 167.510 C 357.301 167.802,357.367 167.944,357.559 167.825 C 357.751 167.707,357.996 168.012,358.102 168.505 C 358.209 168.997,358.949 171.932,359.746 175.026 C 361.051 180.088,361.749 183.062,362.182 185.400 C 362.264 185.840,362.458 186.830,362.614 187.600 C 362.770 188.370,362.934 189.270,362.978 189.600 C 363.023 189.930,363.176 190.560,363.320 191.000 C 363.463 191.440,363.685 192.700,363.813 193.800 C 363.941 194.900,364.145 196.520,364.266 197.400 C 364.869 201.778,365.364 207.067,365.566 211.300 C 365.598 211.953,366.553 212.000,379.748 212.000 L 393.897 212.000 394.164 209.987 C 394.311 208.880,394.349 207.842,394.250 207.680 C 394.150 207.519,393.947 205.680,393.798 203.594 C 393.543 200.012,393.363 197.924,392.991 194.200 C 392.843 192.724,392.659 191.337,392.194 188.200 C 382.240 121.010,337.282 59.691,271.862 24.080 C 269.081 22.566,266.939 21.180,267.103 21.000 C 267.266 20.819,267.173 20.802,266.896 20.962 C 266.613 21.125,264.427 20.346,261.896 19.180 C 247.841 12.703,224.416 5.184,212.649 3.373 C 211.796 3.242,210.716 3.053,210.249 2.953 C 205.812 2.003,189.629 0.400,184.472 0.400 L 181.990 0.400 182.095 14.471 M71.000 1.456 C 69.281 2.351,7.840 63.761,6.024 66.400 C -0.318 75.618,-1.257 91.553,3.361 111.600 C 3.690 113.030,4.041 114.650,4.142 115.200 C 4.242 115.750,4.905 118.450,5.615 121.200 C 6.326 123.950,6.947 126.470,6.997 126.800 C 7.046 127.130,7.297 127.920,7.555 128.555 C 7.812 129.191,7.929 129.804,7.815 129.919 C 7.700 130.033,7.766 130.323,7.961 130.563 C 8.156 130.803,8.893 132.890,9.599 135.200 C 11.356 140.945,15.404 151.744,18.572 159.137 C 20.018 162.512,21.082 165.482,20.937 165.737 C 20.791 165.992,20.821 166.064,21.004 165.899 C 21.187 165.733,23.528 169.873,26.206 175.099 C 73.342 267.062,176.561 361.166,261.551 389.659 C 265.428 390.958,268.870 392.134,269.200 392.272 C 269.530 392.410,270.246 392.597,270.790 392.687 C 271.335 392.778,271.981 393.018,272.227 393.222 C 272.473 393.426,272.764 393.503,272.874 393.392 C 272.985 393.282,273.868 393.477,274.838 393.826 C 277.017 394.611,276.684 394.524,283.200 396.013 C 308.333 401.756,324.082 401.433,333.811 394.975 C 337.900 392.261,399.080 330.731,399.596 328.813 C 400.838 324.204,400.802 324.175,376.800 310.195 C 372.730 307.825,364.180 302.786,357.800 298.998 C 351.420 295.210,340.980 289.042,334.600 285.291 C 328.220 281.540,319.490 276.383,315.200 273.830 C 310.648 271.122,306.775 269.087,305.900 268.943 C 305.075 268.808,304.400 268.558,304.400 268.387 C 304.400 268.008,301.341 268.126,300.947 268.519 C 300.793 268.674,300.292 268.802,299.833 268.804 C 296.971 268.817,294.895 270.551,280.000 285.361 C 269.614 295.687,264.765 300.233,263.200 301.109 C 260.759 302.476,255.112 304.485,254.070 304.359 C 253.701 304.314,253.085 304.414,252.699 304.582 C 252.314 304.749,251.504 304.748,250.899 304.578 C 250.295 304.408,249.564 304.309,249.275 304.358 C 247.525 304.653,238.581 301.978,232.400 299.312 C 212.448 290.706,191.598 276.085,168.400 254.432 C 132.765 221.172,110.746 192.043,99.016 162.646 C 98.014 160.134,96.334 153.630,96.584 153.227 C 96.710 153.022,96.648 152.753,96.447 152.629 C 96.062 152.391,95.963 146.076,96.333 145.418 C 96.452 145.208,96.608 144.490,96.681 143.822 C 97.200 139.081,99.718 135.792,113.390 122.000 C 123.832 111.466,126.420 108.640,127.038 107.101 C 127.457 106.057,127.904 105.202,128.031 105.201 C 128.158 105.201,128.182 104.660,128.085 104.000 C 127.988 103.340,128.065 102.800,128.255 102.800 C 128.445 102.800,128.600 101.990,128.600 101.000 C 128.600 100.010,128.465 99.200,128.300 99.200 C 128.135 99.200,128.000 98.836,128.000 98.391 C 128.000 97.441,126.088 93.564,121.000 84.200 C 118.968 80.460,113.660 70.470,109.206 62.000 C 104.751 53.530,100.158 44.890,98.999 42.800 C 97.841 40.710,94.148 33.780,90.795 27.400 C 80.896 8.569,78.329 3.853,77.441 2.862 C 75.610 0.820,73.225 0.299,71.000 1.456 M182.000 80.740 C 182.000 94.228,182.047 95.203,182.700 95.245 C 183.085 95.269,184.120 95.348,185.000 95.420 C 185.880 95.493,187.106 95.559,187.725 95.568 C 188.344 95.576,189.061 95.714,189.319 95.874 C 189.578 96.034,190.590 96.211,191.568 96.268 C 192.547 96.324,193.629 96.488,193.974 96.632 C 194.318 96.775,195.159 96.951,195.842 97.022 C 196.524 97.093,198.504 97.529,200.242 97.991 C 201.979 98.453,203.850 98.921,204.400 99.031 C 206.916 99.537,217.825 103.470,222.751 105.646 C 252.496 118.791,276.470 143.130,289.315 173.226 C 291.683 178.773,294.497 187.169,294.226 187.876 C 294.107 188.187,294.156 188.351,294.334 188.241 C 294.742 187.989,296.934 197.199,297.800 202.800 C 298.158 205.110,298.615 207.849,298.818 208.886 C 299.020 209.923,299.080 211.048,298.950 211.386 C 298.741 211.931,300.335 212.000,313.134 212.000 C 327.786 212.000,328.421 211.934,327.648 210.490 C 327.434 210.091,327.155 208.242,327.027 206.382 C 326.899 204.522,326.612 202.100,326.390 201.000 C 326.167 199.900,326.016 198.730,326.054 198.400 C 326.092 198.070,325.988 197.489,325.822 197.109 C 325.657 196.729,325.494 195.695,325.461 194.811 C 325.427 193.927,325.244 193.204,325.053 193.202 C 324.863 193.201,324.792 192.756,324.895 192.214 C 324.999 191.672,324.942 191.177,324.769 191.114 C 324.596 191.051,324.397 190.280,324.327 189.400 C 324.257 188.520,324.099 187.710,323.975 187.600 C 323.851 187.490,323.328 185.690,322.812 183.600 C 313.090 144.196,281.432 103.290,247.085 85.749 C 245.920 85.154,245.279 84.596,245.447 84.324 C 245.611 84.058,245.543 83.988,245.279 84.151 C 245.035 84.302,243.252 83.632,241.317 82.663 C 235.063 79.528,228.360 76.780,221.000 74.333 C 217.040 73.017,213.530 71.840,213.200 71.717 C 212.870 71.594,212.240 71.439,211.800 71.372 C 211.360 71.304,209.200 70.782,207.000 70.210 C 202.727 69.101,201.354 68.796,200.400 68.744 C 200.070 68.726,198.990 68.535,198.000 68.320 C 195.943 67.874,194.861 67.691,192.600 67.410 C 191.720 67.301,190.550 67.117,190.000 67.002 C 189.450 66.886,187.425 66.677,185.500 66.536 L 182.000 66.280 182.000 80.740 M182.094 144.794 L 182.200 156.822 187.436 158.575 C 206.685 165.019,222.501 178.899,231.196 196.979 C 233.551 201.876,236.352 209.311,236.496 211.046 L 236.574 212.000 248.641 212.000 C 260.368 212.000,260.713 211.978,260.916 211.200 C 261.031 210.761,260.962 210.300,260.762 210.177 C 260.563 210.054,260.400 209.580,260.400 209.125 C 260.400 208.669,259.937 206.205,259.371 203.648 C 252.073 170.685,226.008 143.607,193.847 135.579 C 192.061 135.134,190.330 134.657,190.000 134.521 C 189.670 134.385,189.238 134.311,189.040 134.356 C 188.842 134.402,188.392 134.318,188.040 134.168 C 187.282 133.847,185.764 133.605,184.470 133.600 C 183.958 133.598,183.191 133.409,182.764 133.181 C 182.003 132.774,181.990 132.998,182.094 144.794 " stroke="none" fill="#040404" fill-rule="evenodd"></path><path id="path2" d="M181.287 14.500 C 181.239 22.365,181.335 28.800,181.500 28.800 C 181.773 28.801,181.766 17.840,181.485 5.200 C 181.424 2.450,181.335 6.635,181.287 14.500 M244.400 11.734 C 244.400 11.837,244.981 12.124,245.691 12.372 C 246.401 12.619,246.806 12.657,246.591 12.456 C 246.135 12.029,244.400 11.458,244.400 11.734 M34.012 36.872 C 31.049 39.759,28.979 41.926,29.412 41.687 C 30.198 41.254,39.962 31.590,39.594 31.611 C 39.487 31.616,36.976 33.984,34.012 36.872 M17.800 52.959 C 12.080 58.540,7.490 63.192,7.600 63.299 C 7.710 63.405,12.480 58.837,18.200 53.148 C 23.920 47.459,28.510 42.806,28.400 42.808 C 28.290 42.811,23.520 47.379,17.800 52.959 M255.233 47.753 C 255.641 48.126,260.400 50.391,260.400 50.212 C 260.400 49.987,255.779 47.600,255.345 47.600 C 255.192 47.600,255.142 47.669,255.233 47.753 M107.078 57.795 C 107.444 58.562,107.814 59.119,107.901 59.032 C 108.084 58.849,106.870 56.400,106.596 56.400 C 106.495 56.400,106.712 57.028,107.078 57.795 M181.287 80.476 C 181.239 88.548,181.335 95.236,181.500 95.339 C 181.773 95.508,181.766 84.160,181.486 71.000 C 181.425 68.140,181.335 72.404,181.287 80.476 M113.000 68.800 C 113.341 69.460,113.711 70.000,113.821 70.000 C 113.931 70.000,113.741 69.460,113.400 68.800 C 113.059 68.140,112.689 67.600,112.579 67.600 C 112.469 67.600,112.659 68.140,113.000 68.800 M339.600 77.156 C 339.600 77.351,339.958 77.936,340.396 78.456 L 341.192 79.400 340.566 78.100 C 339.946 76.810,339.600 76.472,339.600 77.156 M235.200 79.414 C 235.200 79.749,238.469 81.244,238.892 81.103 C 239.130 81.023,238.397 80.573,237.262 80.101 C 236.128 79.630,235.200 79.321,235.200 79.414 M306.543 84.000 C 309.162 87.070,311.196 89.075,311.198 88.591 C 311.199 88.365,309.730 86.745,307.933 84.991 C 305.307 82.426,305.035 82.232,306.543 84.000 M224.400 106.762 C 224.400 107.125,227.590 108.543,227.841 108.292 C 227.919 108.214,227.176 107.759,226.191 107.281 C 225.206 106.802,224.400 106.569,224.400 106.762 M280.000 110.200 C 280.746 110.970,281.447 111.600,281.557 111.600 C 281.667 111.600,281.146 110.970,280.400 110.200 C 279.654 109.430,278.953 108.800,278.843 108.800 C 278.733 108.800,279.254 109.430,280.000 110.200 M116.600 119.200 C 111.984 123.820,108.297 127.600,108.407 127.600 C 108.517 127.600,112.384 123.820,117.000 119.200 C 121.616 114.580,125.303 110.800,125.193 110.800 C 125.083 110.800,121.216 114.580,116.600 119.200 M284.400 114.600 C 285.146 115.370,285.847 116.000,285.957 116.000 C 286.067 116.000,285.546 115.370,284.800 114.600 C 284.054 113.830,283.353 113.200,283.243 113.200 C 283.133 113.200,283.654 113.830,284.400 114.600 M256.400 127.925 C 256.400 128.103,256.985 128.671,257.700 129.185 L 259.000 130.121 257.825 128.861 C 256.580 127.525,256.400 127.406,256.400 127.925 M105.188 130.700 L 102.600 133.400 105.300 130.812 C 106.785 129.388,108.000 128.173,108.000 128.112 C 108.000 127.817,107.593 128.192,105.188 130.700 M181.285 144.676 C 181.238 151.318,181.335 156.836,181.500 156.939 C 181.665 157.041,181.754 153.497,181.698 149.062 C 181.507 134.021,181.370 132.563,181.285 144.676 M264.025 135.431 C 264.781 136.328,265.481 136.997,265.580 136.917 C 265.679 136.838,265.060 136.104,264.205 135.287 L 262.650 133.800 264.025 135.431 M202.000 137.734 C 202.000 137.837,202.581 138.124,203.291 138.372 C 204.001 138.619,204.406 138.657,204.191 138.456 C 203.735 138.029,202.000 137.458,202.000 137.734 M233.000 157.200 C 233.859 158.080,234.652 158.800,234.762 158.800 C 234.872 158.800,234.259 158.080,233.400 157.200 C 232.541 156.320,231.748 155.600,231.638 155.600 C 231.528 155.600,232.141 156.320,233.000 157.200 M385.663 159.000 C 385.662 159.220,385.903 160.030,386.200 160.800 C 386.497 161.570,386.745 161.930,386.752 161.600 C 386.758 161.270,386.517 160.460,386.214 159.800 C 385.912 159.140,385.664 158.780,385.663 159.000 M236.600 160.800 C 237.459 161.680,238.252 162.400,238.362 162.400 C 238.472 162.400,237.859 161.680,237.000 160.800 C 236.141 159.920,235.348 159.200,235.238 159.200 C 235.128 159.200,235.741 159.920,236.600 160.800 M284.678 164.595 C 285.044 165.362,285.414 165.919,285.501 165.832 C 285.684 165.649,284.470 163.200,284.196 163.200 C 284.095 163.200,284.312 163.828,284.678 164.595 M288.724 173.000 C 288.926 173.440,289.192 174.070,289.314 174.400 C 289.507 174.918,289.541 174.915,289.568 174.376 C 289.586 174.034,289.320 173.404,288.978 172.976 C 288.366 172.212,288.362 172.213,288.724 173.000 M321.844 179.400 C 322.173 180.871,322.402 181.190,322.394 180.167 C 322.391 179.745,322.205 179.130,321.982 178.800 C 321.685 178.362,321.648 178.524,321.844 179.400 M323.106 184.218 C 323.210 184.765,323.428 185.294,323.590 185.394 C 323.752 185.494,323.799 185.129,323.694 184.582 C 323.590 184.035,323.372 183.506,323.210 183.406 C 323.048 183.306,323.001 183.671,323.106 184.218 M54.000 221.783 C 54.000 221.943,54.360 222.531,54.800 223.091 C 55.240 223.650,55.600 223.977,55.600 223.817 C 55.600 223.657,55.240 223.069,54.800 222.509 C 54.360 221.950,54.000 221.623,54.000 221.783 M150.324 236.200 C 150.555 236.640,152.328 238.530,154.263 240.400 L 157.781 243.800 154.206 240.000 C 152.239 237.910,150.467 236.020,150.266 235.800 C 150.066 235.580,150.092 235.760,150.324 236.200 M158.000 244.085 C 158.000 244.174,159.737 245.946,161.859 248.023 C 163.981 250.100,165.646 251.592,165.559 251.338 C 165.401 250.880,158.000 243.778,158.000 244.085 M281.688 282.800 C 268.624 295.962,266.145 298.525,267.588 297.383 C 269.285 296.039,293.630 271.484,293.512 271.236 C 293.450 271.106,288.130 276.310,281.688 282.800 M97.860 274.838 C 98.487 275.629,99.204 276.619,99.453 277.038 C 99.702 277.457,100.013 277.700,100.143 277.577 C 100.273 277.455,99.556 276.465,98.550 275.377 C 97.544 274.290,97.233 274.047,97.860 274.838 M104.800 282.125 C 104.800 282.194,105.385 282.779,106.100 283.425 L 107.400 284.600 106.225 283.300 C 105.130 282.088,104.800 281.816,104.800 282.125 M116.383 293.700 C 118.041 295.466,118.400 295.784,118.400 295.483 C 118.400 295.419,117.545 294.564,116.500 293.583 L 114.600 291.800 116.383 293.700 M126.400 303.400 C 127.146 304.170,127.847 304.800,127.957 304.800 C 128.067 304.800,127.546 304.170,126.800 303.400 C 126.054 302.630,125.353 302.000,125.243 302.000 C 125.133 302.000,125.654 302.630,126.400 303.400 M140.887 316.861 C 140.986 317.158,141.232 317.403,141.433 317.406 C 141.635 317.409,142.053 317.572,142.362 317.768 C 142.747 318.012,142.834 317.979,142.640 317.664 C 142.167 316.899,140.671 316.214,140.887 316.861 M367.351 362.611 C 350.604 379.435,336.988 393.200,337.093 393.200 C 337.309 393.200,391.111 339.378,395.372 334.900 C 402.475 327.435,395.463 334.369,367.351 362.611 M245.600 384.286 C 245.930 384.408,246.560 384.674,247.000 384.876 C 247.787 385.238,247.788 385.234,247.024 384.622 C 246.596 384.280,245.966 384.014,245.624 384.032 C 245.085 384.059,245.082 384.093,245.600 384.286 M312.705 400.283 C 313.202 400.379,313.922 400.375,314.305 400.275 C 314.687 400.175,314.280 400.096,313.400 400.101 C 312.520 400.105,312.207 400.187,312.705 400.283 " stroke="none" fill="#7c7c7c" fill-rule="evenodd"></path><path id="path3" d="M181.780 14.200 C 181.780 21.900,181.834 24.993,181.899 21.074 C 181.965 17.155,181.965 10.855,181.899 7.074 C 181.834 3.293,181.780 6.500,181.780 14.200 M65.988 5.500 L 63.400 8.200 66.100 5.612 C 68.608 3.207,68.983 2.800,68.688 2.800 C 68.627 2.800,67.412 4.015,65.988 5.500 M225.800 6.339 C 227.037 6.868,229.110 7.277,228.400 6.851 C 228.070 6.654,227.170 6.380,226.400 6.244 C 225.456 6.077,225.260 6.108,225.800 6.339 M231.233 7.759 C 231.325 7.846,232.382 8.208,233.583 8.562 C 234.784 8.916,235.594 9.055,235.383 8.871 C 234.790 8.351,230.708 7.258,231.233 7.759 M237.409 9.535 C 237.624 9.730,238.426 10.100,239.191 10.356 C 239.956 10.612,240.406 10.661,240.191 10.465 C 239.976 10.270,239.174 9.900,238.409 9.644 C 237.644 9.388,237.194 9.339,237.409 9.535 M28.999 42.500 L 7.000 64.600 29.100 42.601 C 41.255 30.502,51.200 20.557,51.200 20.501 C 51.200 20.220,49.447 21.957,28.999 42.500 M278.000 27.350 C 278.000 27.444,278.641 27.899,279.424 28.361 C 280.207 28.823,280.736 29.020,280.599 28.798 C 280.331 28.364,278.000 27.066,278.000 27.350 M186.200 28.800 C 187.396 29.314,188.395 29.314,187.600 28.800 C 187.270 28.587,186.640 28.422,186.200 28.434 L 185.400 28.456 186.200 28.800 M190.600 29.200 C 191.701 29.673,192.092 29.673,191.800 29.200 C 191.664 28.980,191.158 28.813,190.676 28.828 C 189.831 28.855,189.829 28.869,190.600 29.200 M194.200 29.600 C 195.301 30.073,195.692 30.073,195.400 29.600 C 195.264 29.380,194.758 29.213,194.276 29.228 C 193.431 29.255,193.429 29.269,194.200 29.600 M210.889 32.223 C 211.182 32.515,215.598 33.579,216.400 33.550 C 216.730 33.538,216.190 33.305,215.200 33.033 C 212.668 32.336,210.617 31.950,210.889 32.223 M221.000 34.800 C 221.440 34.989,222.070 35.144,222.400 35.144 C 222.778 35.144,222.704 35.017,222.200 34.800 C 221.760 34.611,221.130 34.456,220.800 34.456 C 220.422 34.456,220.496 34.583,221.000 34.800 M96.278 37.795 C 96.644 38.562,97.014 39.119,97.101 39.032 C 97.284 38.849,96.070 36.400,95.796 36.400 C 95.695 36.400,95.912 37.028,96.278 37.795 M326.400 63.710 C 326.400 63.771,327.795 65.166,329.500 66.810 L 332.600 69.800 329.610 66.700 C 326.833 63.821,326.400 63.417,326.400 63.710 M181.782 66.502 C 181.676 66.779,181.639 73.304,181.700 81.002 L 181.811 95.000 181.905 80.729 C 181.993 67.521,182.052 66.445,182.700 66.276 C 183.356 66.104,183.355 66.090,182.687 66.046 C 182.296 66.021,181.888 66.226,181.782 66.502 M206.000 70.000 C 206.550 70.176,207.360 70.320,207.800 70.320 C 208.433 70.320,208.392 70.254,207.600 70.000 C 207.050 69.824,206.240 69.680,205.800 69.680 C 205.167 69.680,205.208 69.746,206.000 70.000 M209.400 70.739 C 210.637 71.268,212.710 71.677,212.000 71.251 C 211.670 71.054,210.770 70.780,210.000 70.644 C 209.056 70.477,208.860 70.508,209.400 70.739 M213.046 71.589 C 213.470 71.992,216.616 72.882,216.221 72.488 C 216.070 72.337,215.215 71.997,214.320 71.733 C 213.425 71.469,212.852 71.404,213.046 71.589 M117.078 76.995 C 117.444 77.762,117.814 78.319,117.901 78.232 C 118.084 78.049,116.870 75.600,116.596 75.600 C 116.495 75.600,116.712 76.228,117.078 76.995 M298.800 76.125 C 298.800 76.194,299.385 76.779,300.100 77.425 L 301.400 78.600 300.225 77.300 C 299.130 76.088,298.800 75.816,298.800 76.125 M305.000 82.000 C 306.083 83.100,307.060 84.000,307.170 84.000 C 307.280 84.000,306.483 83.100,305.400 82.000 C 304.317 80.900,303.340 80.000,303.230 80.000 C 303.120 80.000,303.917 80.900,305.000 82.000 M120.400 83.200 C 120.849 84.080,121.306 84.800,121.416 84.800 C 121.526 84.800,121.249 84.080,120.800 83.200 C 120.351 82.320,119.894 81.600,119.784 81.600 C 119.674 81.600,119.951 82.320,120.400 83.200 M310.870 87.951 C 311.381 88.584,312.160 89.325,312.600 89.598 C 313.040 89.871,312.688 89.353,311.819 88.447 C 309.981 86.533,309.534 86.299,310.870 87.951 M252.600 89.007 C 253.040 89.366,253.760 89.835,254.200 90.051 L 255.000 90.444 254.200 89.793 C 253.760 89.434,253.040 88.965,252.600 88.749 L 251.800 88.356 252.600 89.007 M184.033 95.343 C 184.125 95.421,184.830 95.601,185.600 95.742 C 186.585 95.923,186.822 95.882,186.400 95.606 C 185.858 95.250,183.637 95.003,184.033 95.343 M192.000 96.555 C 192.000 96.640,192.530 96.787,193.179 96.882 C 193.827 96.977,194.267 96.908,194.155 96.728 C 193.957 96.407,192.000 96.250,192.000 96.555 M197.200 97.600 C 197.750 97.776,198.560 97.920,199.000 97.920 C 199.633 97.920,199.592 97.854,198.800 97.600 C 198.250 97.424,197.440 97.280,197.000 97.280 C 196.367 97.280,196.408 97.346,197.200 97.600 M276.800 107.400 C 277.546 108.170,278.247 108.800,278.357 108.800 C 278.467 108.800,277.946 108.170,277.200 107.400 C 276.454 106.630,275.753 106.000,275.643 106.000 C 275.533 106.000,276.054 106.630,276.800 107.400 M112.997 122.494 C 106.619 128.926,102.400 133.242,103.623 132.084 C 104.846 130.927,106.000 130.119,106.187 130.290 C 106.375 130.460,106.411 130.395,106.269 130.145 C 106.015 129.701,107.088 128.502,107.561 128.700 C 107.693 128.755,107.803 128.665,107.806 128.500 C 107.820 127.824,108.486 127.205,108.928 127.458 C 109.187 127.606,109.258 127.573,109.085 127.383 C 108.912 127.192,112.420 123.384,116.881 118.918 C 121.343 114.453,124.903 110.800,124.794 110.800 C 124.684 110.800,119.376 116.062,112.997 122.494 M285.600 116.200 C 286.795 117.410,287.863 118.400,287.973 118.400 C 288.083 118.400,287.195 117.410,286.000 116.200 C 284.805 114.990,283.737 114.000,283.627 114.000 C 283.517 114.000,284.405 114.990,285.600 116.200 M241.200 115.745 C 241.200 115.851,242.325 116.724,243.700 117.685 C 246.743 119.811,247.200 120.096,247.200 119.874 C 247.200 119.778,245.850 118.767,244.200 117.626 C 242.550 116.485,241.200 115.639,241.200 115.745 M369.078 120.195 C 369.444 120.962,369.814 121.519,369.901 121.432 C 370.084 121.249,368.870 118.800,368.596 118.800 C 368.495 118.800,368.712 119.428,369.078 120.195 M261.800 132.800 C 263.992 135.000,265.875 136.800,265.985 136.800 C 266.095 136.800,264.392 135.000,262.200 132.800 C 260.008 130.600,258.125 128.800,258.015 128.800 C 257.905 128.800,259.608 130.600,261.800 132.800 M8.885 134.252 C 9.336 135.763,9.852 137.161,10.032 137.359 C 10.211 137.556,9.990 136.476,9.540 134.959 C 9.090 133.441,8.574 132.043,8.393 131.852 C 8.212 131.661,8.434 132.741,8.885 134.252 M181.694 144.651 C 181.608 155.719,181.657 156.747,182.300 157.251 C 182.919 157.736,182.943 157.726,182.506 157.166 C 182.145 156.704,181.982 153.305,181.900 144.566 L 181.788 132.600 181.694 144.651 M191.427 134.755 C 191.852 135.144,194.329 135.796,193.954 135.420 C 193.819 135.286,193.111 135.004,192.381 134.795 C 191.651 134.585,191.222 134.568,191.427 134.755 M194.606 135.610 C 194.706 135.772,195.235 135.990,195.782 136.094 C 196.329 136.199,196.694 136.152,196.594 135.990 C 196.494 135.828,195.965 135.610,195.418 135.506 C 194.871 135.401,194.506 135.448,194.606 135.610 M10.572 139.400 C 10.729 140.060,11.029 140.776,11.239 140.991 C 11.450 141.206,11.410 140.756,11.151 139.991 C 10.546 138.200,10.205 137.852,10.572 139.400 M96.093 148.800 C 96.093 149.570,96.175 149.885,96.276 149.500 C 96.376 149.115,96.376 148.485,96.276 148.100 C 96.175 147.715,96.093 148.030,96.093 148.800 M96.665 154.391 C 96.796 155.157,97.144 156.507,97.439 157.391 C 97.949 158.925,97.962 158.935,97.735 157.609 C 97.604 156.843,97.256 155.493,96.961 154.609 C 96.451 153.075,96.438 153.065,96.665 154.391 M188.609 159.161 C 188.824 159.371,189.540 159.671,190.200 159.828 C 191.748 160.195,191.400 159.854,189.609 159.249 C 188.844 158.990,188.394 158.950,188.609 159.161 M389.337 173.723 C 389.477 174.120,390.061 177.000,390.633 180.123 C 391.206 183.245,391.833 186.160,392.026 186.600 C 392.441 187.541,392.508 187.986,390.967 179.600 C 390.381 176.410,389.717 173.620,389.492 173.400 C 389.214 173.129,389.165 173.233,389.337 173.723 M217.000 177.200 C 218.528 178.740,219.869 180.000,219.979 180.000 C 220.089 180.000,218.928 178.740,217.400 177.200 C 215.872 175.660,214.531 174.400,214.421 174.400 C 214.311 174.400,215.472 175.660,217.000 177.200 M29.000 181.200 C 29.341 181.860,29.711 182.400,29.821 182.400 C 29.931 182.400,29.741 181.860,29.400 181.200 C 29.059 180.540,28.689 180.000,28.579 180.000 C 28.469 180.000,28.659 180.540,29.000 181.200 M393.293 198.000 C 393.293 198.770,393.375 199.085,393.476 198.700 C 393.576 198.315,393.576 197.685,393.476 197.300 C 393.375 196.915,393.293 197.230,393.293 198.000 M326.828 204.633 C 326.844 205.275,327.016 206.160,327.210 206.600 C 327.447 207.134,327.486 206.802,327.327 205.600 C 327.046 203.480,326.788 202.980,326.828 204.633 M365.301 208.200 C 365.305 209.080,365.387 209.393,365.483 208.895 C 365.579 208.398,365.575 207.678,365.475 207.295 C 365.375 206.913,365.296 207.320,365.301 208.200 M327.206 208.633 C 327.209 209.275,327.384 210.070,327.595 210.400 C 327.855 210.809,327.899 210.490,327.732 209.400 C 327.429 207.423,327.198 207.086,327.206 208.633 M46.246 210.100 C 47.086 211.532,49.655 215.200,49.818 215.200 C 49.922 215.200,49.169 213.940,48.145 212.400 C 47.120 210.860,46.208 209.600,46.118 209.600 C 46.027 209.600,46.085 209.825,46.246 210.100 M394.046 210.700 L 394.000 212.000 380.000 212.000 C 370.933 212.000,366.000 212.141,366.000 212.400 C 366.000 212.659,370.931 212.800,379.992 212.800 L 393.985 212.800 394.228 211.832 C 394.361 211.299,394.386 210.534,394.282 210.132 C 394.175 209.717,394.073 209.963,394.046 210.700 M249.100 211.900 C 241.629 211.970,237.200 212.159,237.200 212.406 C 237.200 213.126,260.668 212.922,260.945 212.200 C 261.071 211.870,261.136 211.642,261.087 211.694 C 261.039 211.745,255.645 211.838,249.100 211.900 M313.480 211.900 C 304.185 211.971,299.245 212.149,299.403 212.405 C 299.847 213.123,327.467 212.923,327.745 212.200 C 327.871 211.870,327.936 211.643,327.887 211.695 C 327.839 211.747,321.356 211.839,313.480 211.900 M142.000 227.800 C 142.746 228.570,143.447 229.200,143.557 229.200 C 143.667 229.200,143.146 228.570,142.400 227.800 C 141.654 227.030,140.953 226.400,140.843 226.400 C 140.733 226.400,141.254 227.030,142.000 227.800 M146.000 232.125 C 146.000 232.194,146.585 232.779,147.300 233.425 L 148.600 234.600 147.425 233.300 C 146.330 232.088,146.000 231.816,146.000 232.125 M156.394 242.900 C 161.406 248.009,162.000 248.581,162.000 248.294 C 162.000 248.236,159.525 245.761,156.500 242.794 L 151.000 237.400 156.394 242.900 M167.200 253.400 C 167.946 254.170,168.647 254.800,168.757 254.800 C 168.867 254.800,168.346 254.170,167.600 253.400 C 166.854 252.630,166.153 252.000,166.043 252.000 C 165.933 252.000,166.454 252.630,167.200 253.400 M172.000 257.725 C 172.000 257.794,172.585 258.379,173.300 259.025 L 174.600 260.200 173.425 258.900 C 172.330 257.688,172.000 257.416,172.000 257.725 M178.400 263.325 C 178.400 263.394,178.985 263.979,179.700 264.625 L 181.000 265.800 179.825 264.500 C 178.730 263.288,178.400 263.016,178.400 263.325 M90.600 266.800 C 91.459 267.680,92.252 268.400,92.362 268.400 C 92.472 268.400,91.859 267.680,91.000 266.800 C 90.141 265.920,89.348 265.200,89.238 265.200 C 89.128 265.200,89.741 265.920,90.600 266.800 M94.600 271.200 C 95.459 272.080,96.252 272.800,96.362 272.800 C 96.472 272.800,95.859 272.080,95.000 271.200 C 94.141 270.320,93.348 269.600,93.238 269.600 C 93.128 269.600,93.741 270.320,94.600 271.200 M101.400 278.400 C 102.483 279.500,103.460 280.400,103.570 280.400 C 103.680 280.400,102.883 279.500,101.800 278.400 C 100.717 277.300,99.740 276.400,99.630 276.400 C 99.520 276.400,100.317 277.300,101.400 278.400 M282.191 282.900 L 279.000 286.200 282.300 283.009 C 284.115 281.255,285.600 279.770,285.600 279.709 C 285.600 279.418,285.154 279.835,282.191 282.900 M111.400 288.800 C 112.259 289.680,113.052 290.400,113.162 290.400 C 113.272 290.400,112.659 289.680,111.800 288.800 C 110.941 287.920,110.148 287.200,110.038 287.200 C 109.928 287.200,110.541 287.920,111.400 288.800 M121.983 298.900 C 123.641 300.666,124.000 300.984,124.000 300.683 C 124.000 300.619,123.145 299.764,122.100 298.783 L 120.200 297.000 121.983 298.900 M261.600 301.600 C 260.830 302.022,260.344 302.374,260.520 302.383 C 260.944 302.405,263.200 301.232,263.200 300.990 C 263.200 300.728,263.177 300.737,261.600 301.600 M240.075 302.208 C 240.376 302.510,247.982 304.405,248.751 304.371 C 249.108 304.355,247.330 303.817,244.800 303.175 C 239.811 301.910,239.768 301.901,240.075 302.208 M257.000 303.386 C 255.455 304.093,256.174 304.103,258.000 303.400 C 258.770 303.103,259.130 302.855,258.800 302.848 C 258.470 302.842,257.660 303.083,257.000 303.386 M129.000 305.600 C 129.859 306.480,130.652 307.200,130.762 307.200 C 130.872 307.200,130.259 306.480,129.400 305.600 C 128.541 304.720,127.748 304.000,127.638 304.000 C 127.528 304.000,128.141 304.720,129.000 305.600 M250.458 304.444 C 251.135 304.873,252.689 304.903,252.943 304.492 C 253.048 304.323,252.409 304.166,251.524 304.143 C 250.486 304.115,250.108 304.222,250.458 304.444 M132.800 308.925 C 132.800 308.994,133.385 309.579,134.100 310.225 L 135.400 311.400 134.225 310.100 C 133.130 308.888,132.800 308.616,132.800 308.925 M385.395 344.100 L 379.000 350.600 385.500 344.205 C 389.075 340.687,392.000 337.762,392.000 337.705 C 392.000 337.419,391.337 338.061,385.395 344.100 M182.800 348.946 C 182.800 349.056,183.340 349.530,184.000 350.000 C 184.660 350.470,185.200 350.764,185.200 350.654 C 185.200 350.544,184.660 350.070,184.000 349.600 C 183.340 349.130,182.800 348.836,182.800 348.946 M364.394 365.100 L 359.400 370.200 364.500 365.206 C 367.305 362.459,369.600 360.164,369.600 360.106 C 369.600 359.819,369.033 360.363,364.394 365.100 M342.593 386.880 C 340.177 389.344,339.190 390.487,340.400 389.419 C 343.348 386.819,347.605 382.400,347.163 382.400 C 347.066 382.400,345.009 384.416,342.593 386.880 M261.400 389.993 C 262.280 390.425,263.270 390.777,263.600 390.774 C 264.273 390.768,262.274 389.834,260.774 389.454 C 260.238 389.318,260.520 389.561,261.400 389.993 M264.800 391.093 C 267.157 391.995,269.712 392.758,269.389 392.462 C 268.934 392.046,265.255 390.785,264.629 390.832 C 264.393 390.849,264.470 390.967,264.800 391.093 " stroke="none" fill="#595959" fill-rule="evenodd"></path><path id="path4" d="M57.993 13.500 L 53.800 17.800 58.100 13.607 C 62.094 9.713,62.582 9.200,62.293 9.200 C 62.234 9.200,60.299 11.135,57.993 13.500 M240.000 10.231 C 240.000 10.501,242.078 11.256,242.276 11.057 C 242.367 10.967,241.892 10.701,241.220 10.467 C 240.549 10.233,240.000 10.127,240.000 10.231 M13.600 57.400 C 12.628 58.390,11.923 59.200,12.033 59.200 C 12.143 59.200,13.028 58.390,14.000 57.400 C 14.972 56.410,15.677 55.600,15.567 55.600 C 15.457 55.600,14.572 56.410,13.600 57.400 M199.200 136.884 C 199.310 136.993,200.026 137.293,200.791 137.551 C 201.556 137.810,202.006 137.850,201.791 137.639 C 201.576 137.429,200.860 137.129,200.200 136.972 C 199.540 136.816,199.090 136.776,199.200 136.884 M287.978 277.100 L 286.600 278.600 288.100 277.222 C 289.496 275.938,289.784 275.600,289.478 275.600 C 289.412 275.600,288.737 276.275,287.978 277.100 M108.400 285.800 C 109.146 286.570,109.847 287.200,109.957 287.200 C 110.067 287.200,109.546 286.570,108.800 285.800 C 108.054 285.030,107.353 284.400,107.243 284.400 C 107.133 284.400,107.654 285.030,108.400 285.800 M276.778 288.300 L 275.400 289.800 276.900 288.422 C 278.296 287.138,278.584 286.800,278.278 286.800 C 278.212 286.800,277.537 287.475,276.778 288.300 M385.600 344.200 C 383.961 345.850,382.710 347.200,382.820 347.200 C 382.930 347.200,384.361 345.850,386.000 344.200 C 387.639 342.550,388.890 341.200,388.780 341.200 C 388.670 341.200,387.239 342.550,385.600 344.200 M364.394 365.500 L 359.000 371.000 364.500 365.606 C 369.609 360.594,370.181 360.000,369.894 360.000 C 369.836 360.000,367.361 362.475,364.394 365.500 M347.200 382.600 C 346.228 383.590,345.523 384.400,345.633 384.400 C 345.743 384.400,346.628 383.590,347.600 382.600 C 348.572 381.610,349.277 380.800,349.167 380.800 C 349.057 380.800,348.172 381.610,347.200 382.600 M339.785 390.100 L 337.800 392.200 339.900 390.215 C 341.055 389.123,342.000 388.178,342.000 388.115 C 342.000 387.817,341.629 388.149,339.785 390.100 " stroke="none" fill="#747474" fill-rule="evenodd"></path></g></svg>