<?xml version="1.0" encoding="utf-8"?>
<!-- Generator: Adobe Illustrator 25.4.1, SVG Export Plug-In . SVG Version: 6.00 Build 0)  -->
<svg version="1.1" id="Layer_1" xmlns="http://www.w3.org/2000/svg" xmlns:xlink="http://www.w3.org/1999/xlink" x="0px" y="0px"
	 viewBox="0 0 30 21.9" style="enable-background:new 0 0 30 21.9;" xml:space="preserve">
<style type="text/css">
	.st0{fill:none;stroke:#FFFFFF;stroke-linecap:round;stroke-linejoin:round;}
</style>
<g id="Layer_2_00000054974360934812253490000014225884814339566981_">
	<g id="Layer_1-2">
		<path class="st0" d="M26.2,3.4l-10,8.8c-0.8,0.7-1.9,0.7-2.7,0L3.5,3.4"/>
		<line class="st0" x1="19.5" y1="13.1" x2="26.2" y2="18.5"/>
		<line class="st0" x1="10.2" y1="13.1" x2="3.5" y2="18.5"/>
		<path class="st0" d="M0.5,3.3v15.3c0,1.6,1.3,2.8,2.9,2.8c0,0,0.1,0,0.1,0h23c1.6,0.1,2.9-1.2,3-2.7c0,0,0,0,0-0.1V3.3
			c0-1.6-1.3-2.9-2.9-2.8c0,0,0,0-0.1,0h-23C1.9,0.4,0.6,1.7,0.5,3.3C0.5,3.3,0.5,3.3,0.5,3.3z"/>
	</g>
</g>
</svg>
