<svg xmlns="http://www.w3.org/2000/svg" viewBox="0 0 29.03 29.19"><defs><style>.cls-1{fill:none;stroke:#231f20;stroke-linecap:round;stroke-linejoin:round;}</style></defs><g id="Layer_2" data-name="Layer 2"><g id="Layer_1-2" data-name="Layer 1"><path class="cls-1" d="M19.21,18a.61.61,0,0,0-.85,0L16.5,19.78l-.09.06c-1.82.92-8.36-6.08-7.11-7.4l1.86-1.83a.59.59,0,0,0,0-.86L5.07,3.53a.63.63,0,0,0-.43-.19.62.62,0,0,0-.43.18c-3.06,3-8,6,3.49,17.69C19,32.73,22.23,28.37,25.35,25a.61.61,0,0,0,0-.84Z"/><path class="cls-1" d="M24.29,13.48a8.45,8.45,0,0,0-8.74-8.74"/><path class="cls-1" d="M28.52,13.48a12.67,12.67,0,0,0-13-13"/><path class="cls-1" d="M15.55,9a4.22,4.22,0,0,1,4.5,4.5"/></g></g></svg>