<svg xmlns="http://www.w3.org/2000/svg" xmlns:xlink="http://www.w3.org/1999/xlink" viewBox="0 0 227.36 62.71"><defs><style>.cls-1{fill:none;}.cls-2{clip-path:url(#clip-path);}.cls-3{fill:url(#linear-gradient);}.cls-4{clip-path:url(#clip-path-2);}.cls-5{fill:url(#linear-gradient-2);}.cls-6{clip-path:url(#clip-path-3);}.cls-7{clip-path:url(#clip-path-4);}.cls-8{clip-path:url(#clip-path-5);}.cls-9{fill:url(#linear-gradient-5);}.cls-10{clip-path:url(#clip-path-6);}.cls-11{clip-path:url(#clip-path-7);}.cls-12{fill:url(#linear-gradient-7);}.cls-13{clip-path:url(#clip-path-8);}.cls-14{clip-path:url(#clip-path-9);}.cls-15{clip-path:url(#clip-path-10);}.cls-16{clip-path:url(#clip-path-11);}.cls-17{fill:url(#linear-gradient-11);}.cls-18{clip-path:url(#clip-path-12);}.cls-19{fill:url(#linear-gradient-12);}.cls-20{clip-path:url(#clip-path-13);}.cls-21{fill:url(#linear-gradient-13);}</style><clipPath id="clip-path"><path class="cls-1" d="M50.26,57.22a.25.25,0,0,1-.12-.25V52.6a.18.18,0,0,1,.12-.2,3,3,0,0,1,.75-.06A2.07,2.07,0,0,1,53,53.7,3.31,3.31,0,0,1,53.18,55a3.38,3.38,0,0,1-.26,1.39,1.48,1.48,0,0,1-1.58,1,3.29,3.29,0,0,1-1.08-.14M49,51.71h-.1l-1.52,0c-.2,0-.31,0-.31.13s.08.13.24.13a3.4,3.4,0,0,1,.56,0,.77.77,0,0,1,.6.82l0,.88V59.3c0,.33,0,.62,0,.85,0,.57,0,1-.05,1.26-.07.49-.21.75-.42.79a2.94,2.94,0,0,1-.51,0c-.15,0-.22,0-.22.12s.09.14.28.14l2,0h.11l1.67,0c.19,0,.28,0,.28-.14s-.06-.12-.17-.12-.41,0-.69,0-.51-.31-.55-.79q0-.4-.06-1.26c0-.23,0-.52,0-.85V58.14c0-.08,0-.12.11-.12l1.23,0a.3.3,0,0,1,.25.11l1.41,2c.44.61.78,1.06,1,1.35a3.63,3.63,0,0,0,.9.76,3.3,3.3,0,0,0,1.52.27h1.34c.18,0,.27,0,.27-.14s-.05-.12-.17-.12a2.13,2.13,0,0,1-.39,0h-.1l-.13,0a.34.34,0,0,1-.15-.06L57.05,62a4,4,0,0,1-1-.79c-.37-.4-.82-.94-1.37-1.63L53,57.46a5.82,5.82,0,0,0,1.47-1.64,3.26,3.26,0,0,0,.39-1.57A2.61,2.61,0,0,0,54.52,53a2.23,2.23,0,0,0-.64-.71,3.41,3.41,0,0,0-1.26-.51,7.16,7.16,0,0,0-1.34-.11Z"/></clipPath><linearGradient id="linear-gradient" x1="-8960.03" y1="4206.41" x2="-8959.03" y2="4206.41" gradientTransform="matrix(241.53, 0, 0, -241.53, 2164122.6, 1016034.23)" gradientUnits="userSpaceOnUse"><stop offset="0" stop-color="#bc955e"/><stop offset="0.28" stop-color="#987041"/><stop offset="0.59" stop-color="#f4c37f"/><stop offset="0.63" stop-color="#fecc86"/><stop offset="0.82" stop-color="#c89b62"/><stop offset="1" stop-color="#987041"/></linearGradient><clipPath id="clip-path-2"><path class="cls-1" d="M68.47,51.6h-.06a3.49,3.49,0,0,1-.6.09H64.27l-2,0c-.21,0-.31,0-.31.13s.08.13.24.13a3.25,3.25,0,0,1,.55,0,.79.79,0,0,1,.61.82l0,.88V59.3c0,.33,0,.62,0,.85,0,.57,0,1,0,1.26-.07.49-.21.75-.42.79a2.94,2.94,0,0,1-.51,0c-.14,0-.22,0-.22.12s.1.14.28.14l1,0h.81c.38,0,.87,0,1.47,0l1.06,0h1.39c.44,0,.7-.12.77-.37a7.25,7.25,0,0,0,.17-1.59c0-.17,0-.25-.11-.25s-.13.07-.16.21a1.29,1.29,0,0,1-.63,1.06,1.8,1.8,0,0,1-.67.15l-.35,0h-.31a2.53,2.53,0,0,1-1.37-.23c-.2-.14-.31-.47-.33-1V57.22c0-.1,0-.14.08-.14h1l.6,0h.38c.45.05.71.23.79.56a1.93,1.93,0,0,1,0,.27l0,.25c0,.08,0,.13.12.13s.13-.1.13-.28l.06-1c0-.16,0-.31,0-.46L68.5,56c0-.07,0-.11-.1-.11s-.12.06-.23.19a1.1,1.1,0,0,1-.68.21,3.68,3.68,0,0,1-.45,0H65.23c-.07,0-.1,0-.1-.16V52.58c0-.1,0-.15.1-.15h1l.61,0h.38a1.91,1.91,0,0,1,.7.18.76.76,0,0,1,.25.33c0,.08,0,.18.07.29a2,2,0,0,1,0,.23c0,.14,0,.2.12.2a.11.11,0,0,0,.1,0,.28.28,0,0,0,0-.11.71.71,0,0,0,0-.19l0-.75c0-.16,0-.29,0-.42l.07-.51c0-.09,0-.14-.09-.14Z"/></clipPath><linearGradient id="linear-gradient-2" x1="-8960.03" y1="4206.41" x2="-8959.03" y2="4206.41" gradientTransform="matrix(241.53, 0, 0, -241.53, 2164122.6, 1016034.19)" xlink:href="#linear-gradient"/><clipPath id="clip-path-3"><path class="cls-1" d="M76.48,52.23a2.47,2.47,0,0,0-.89,2,3.23,3.23,0,0,0,.47,1.68,6.83,6.83,0,0,0,1.62,1.72l.65.51a4.35,4.35,0,0,1,1.14,1.24,2.18,2.18,0,0,1,.25,1.06,1.51,1.51,0,0,1-.47,1.11,1.93,1.93,0,0,1-1.42.53,2.09,2.09,0,0,1-1.22-.34,1.91,1.91,0,0,1-.81-1.11,3,3,0,0,1-.13-.74c0-.16,0-.24-.14-.24s-.15.12-.17.38l0,.73q0,.65,0,1.14a.47.47,0,0,0,.27.49,5.08,5.08,0,0,0,2.07.37,4.66,4.66,0,0,0,1.15-.13,3.45,3.45,0,0,0,1.1-.45,2.89,2.89,0,0,0,1.33-2.5c0-1.26-.78-2.48-2.32-3.66l-.4-.3a6.33,6.33,0,0,1-1.19-1.11,1.71,1.71,0,0,1-.31-1q0-1.47,1.68-1.47a2.08,2.08,0,0,1,1,.24,2.49,2.49,0,0,1,.31.23l.2.24a1.72,1.72,0,0,1,.3.55,1.29,1.29,0,0,1,0,.24l0,.15c0,.17,0,.26.14.26s.15-.15.15-.44,0-.49,0-.71,0-.34,0-.49l0-.51c0-.09-.07-.15-.2-.18l-.33-.08-.4-.08a8.42,8.42,0,0,0-1.15-.08,3.61,3.61,0,0,0-2.38.76"/></clipPath><clipPath id="clip-path-4"><path class="cls-1" d="M90.07,51.7h-.22l-2.19,0c-.22,0-.34,0-.34.11s.08.15.23.15a1.88,1.88,0,0,1,.51.06c.29.06.45.33.48.8l0,.88v5.68c0,.34,0,.63,0,.87a12.27,12.27,0,0,1,0,1.26c0,.43-.18.67-.41.72a2.94,2.94,0,0,1-.51,0c-.15,0-.23,0-.23.12s.1.14.28.14l2.16,0h.13l1.71,0c.18,0,.27,0,.27-.14s-.08-.12-.23-.12a6.55,6.55,0,0,1-.72,0c-.33-.05-.52-.28-.57-.7s0-.71,0-1.28c0-.24,0-.53,0-.87V53.67l0-.88c0-.49.2-.76.53-.82a4.12,4.12,0,0,1,.42,0c.15,0,.23,0,.23-.15s-.1-.11-.3-.11Z"/></clipPath><clipPath id="clip-path-5"><path class="cls-1" d="M102.25,61.78a1,1,0,0,1-.58-.39.52.52,0,0,1-.07-.18,2,2,0,0,1,0-.29l0-.61c0-.37,0-1.33,0-2.9V53.92c0-.57,0-1,0-1.19a.29.29,0,0,1,.17-.29,1.44,1.44,0,0,1,.4-.07l.52,0a8.76,8.76,0,0,1,.91,0,4.7,4.7,0,0,1,1,.2,5,5,0,0,1,1.07.43,5.24,5.24,0,0,1,1,.76,4.18,4.18,0,0,1,.91,1.33,5.51,5.51,0,0,1,.45,2.25,7,7,0,0,1-.25,2,3.28,3.28,0,0,1-.94,1.54,4.8,4.8,0,0,1-3.25,1,3.64,3.64,0,0,1-1.28-.19m-.07-10.11-.88,0h-.25l-2.45,0c-.21,0-.31,0-.31.13s.08.13.24.13a3.25,3.25,0,0,1,.55,0,.79.79,0,0,1,.61.82l0,.88V59.3c0,.33,0,.62,0,.85q0,.85-.06,1.26c-.07.49-.21.75-.41.79a3.05,3.05,0,0,1-.52,0c-.14,0-.22,0-.22.12s.1.14.29.14l1,0h.81l.62,0,.76,0,.82.06c.32,0,.59,0,.81,0a8.2,8.2,0,0,0,1.76-.18,6.7,6.7,0,0,0,1.36-.41,7,7,0,0,0,1-.56,4.58,4.58,0,0,0,.66-.55,5.35,5.35,0,0,0,1.07-1.64,6,6,0,0,0,.47-2.36,5.54,5.54,0,0,0-.42-2.18,4.71,4.71,0,0,0-1-1.47,4.65,4.65,0,0,0-1.29-.94,6.25,6.25,0,0,0-1.46-.48,9.6,9.6,0,0,0-1.52-.18l-.72,0Z"/></clipPath><linearGradient id="linear-gradient-5" x1="-8960.03" y1="4206.41" x2="-8959.03" y2="4206.41" gradientTransform="matrix(241.53, 0, 0, -241.53, 2164122.6, 1016034.29)" xlink:href="#linear-gradient"/><clipPath id="clip-path-6"><path class="cls-1" d="M121.53,51.6h0a3.88,3.88,0,0,1-.61.09h-3.54l-2,0c-.21,0-.31,0-.31.13s.08.13.24.13a3.25,3.25,0,0,1,.55,0,.79.79,0,0,1,.61.82l0,.88V59.3c0,.33,0,.62,0,.85q0,.85-.06,1.26c-.07.49-.21.75-.41.79a3,3,0,0,1-.52,0c-.14,0-.22,0-.22.12s.1.14.29.14l1,0h.81c.38,0,.87,0,1.47,0l1.06,0h1.39c.44,0,.7-.12.77-.37a6.67,6.67,0,0,0,.18-1.59c0-.17,0-.25-.12-.25s-.13.07-.15.21a1.32,1.32,0,0,1-.64,1.06,1.79,1.79,0,0,1-.66.15l-.35,0h-.32a2.56,2.56,0,0,1-1.37-.23c-.2-.14-.31-.47-.33-1V57.22c0-.1,0-.14.09-.14h1l.6,0h.38c.45.05.71.23.79.56a1.1,1.1,0,0,1,0,.27l0,.25c0,.08,0,.13.12.13s.13-.1.13-.28l.06-1c0-.16,0-.31,0-.46l.07-.59c0-.07,0-.11-.1-.11s-.12.06-.23.19a1.06,1.06,0,0,1-.67.21l-.46,0h-1.81c-.06,0-.1,0-.1-.16V52.58c0-.1,0-.15.1-.15h1l.61,0h.38a2,2,0,0,1,.71.18.83.83,0,0,1,.24.33,1.77,1.77,0,0,1,.07.29,2,2,0,0,1,0,.23c0,.14,0,.2.12.2a.11.11,0,0,0,.1,0,.28.28,0,0,0,0-.11.45.45,0,0,0,0-.19l.06-.75c0-.16,0-.29,0-.42l.07-.51c0-.09,0-.14-.08-.14Z"/></clipPath><clipPath id="clip-path-7"><path class="cls-1" d="M129.25,51.92l-.13,8.48c0,1.11-.16,1.7-.44,1.78a2.22,2.22,0,0,1-.64.07c-.15,0-.22,0-.22.12s.1.14.31.14l1,0H130l.79,0h.62c.22,0,.33,0,.33-.14s-.08-.12-.24-.12a2.53,2.53,0,0,1-.74-.09c-.3-.11-.47-.64-.5-1.59l-.15-6h0L132.37,57l1.15,1.18,3.36,3.39.82.82c.21.21.37.32.48.32s.19-.15.19-.45l.15-9.05c0-.72.18-1.12.52-1.22a2.52,2.52,0,0,1,.43,0c.17,0,.25,0,.25-.13s-.11-.13-.33-.13l-.89,0h-1.18l-1,0c-.25,0-.37,0-.37.13s.08.13.22.13h.18a.65.65,0,0,1,.2,0,1,1,0,0,1,.38.07c.31.13.47.56.47,1.28l.15,6.45h-.07l-.84-.88a.38.38,0,0,0-.11-.11.09.09,0,0,0-.06-.06s0,0,0,0h0s0,0,0,0l-.23-.26-4.73-4.92L129.8,51.7l-.14-.15a.37.37,0,0,0-.23-.12c-.12,0-.18.16-.18.49"/></clipPath><linearGradient id="linear-gradient-7" x1="-8960.03" y1="4206.41" x2="-8959.03" y2="4206.41" gradientTransform="matrix(241.53, 0, 0, -241.53, 2164122.6, 1016034.19)" xlink:href="#linear-gradient"/><clipPath id="clip-path-8"><path class="cls-1" d="M149,51.88A5.23,5.23,0,0,0,147.14,53a4.76,4.76,0,0,0-.83,1,4.6,4.6,0,0,0-.5,1,7.4,7.4,0,0,0-.26,1,5.93,5.93,0,0,0-.06.84,6.35,6.35,0,0,0,.35,2.18,5,5,0,0,0,1.4,2,5.9,5.9,0,0,0,2.18,1.21,9,9,0,0,0,2.67.35,10.6,10.6,0,0,0,1.41-.08,5,5,0,0,0,1.14-.24A.6.6,0,0,0,155,62a8.63,8.63,0,0,0,.22-1.07q.09-.69.09-.84c0-.14,0-.22-.12-.22s-.15.1-.19.29a2,2,0,0,1-.48.95,3.35,3.35,0,0,1-2.59.8A4.1,4.1,0,0,1,149,60.61a4.86,4.86,0,0,1-1.1-1.6,5.79,5.79,0,0,1-.42-2.23,6.84,6.84,0,0,1,.27-2,4.28,4.28,0,0,1,6.57-1.68,1.92,1.92,0,0,1,.55,1.31c0,.21,0,.32.14.32s.15-.11.17-.33a2.11,2.11,0,0,0,0-.3v-.85c0-.16,0-.3,0-.4a4.91,4.91,0,0,1,0-.55l0-.24c0-.1-.06-.16-.2-.18l-.33,0-.71-.14-.38-.06-.93-.1c-.34,0-.72,0-1.12,0a7.65,7.65,0,0,0-2.65.41"/></clipPath><clipPath id="clip-path-9"><path class="cls-1" d="M167.57,51.6h-.06a3.49,3.49,0,0,1-.61.09h-3.54l-2,0c-.2,0-.31,0-.31.13s.08.13.25.13a3.35,3.35,0,0,1,.55,0,.8.8,0,0,1,.61.82l0,.88V59.3c0,.33,0,.62,0,.85,0,.57,0,1-.05,1.26-.07.49-.21.75-.42.79a2.94,2.94,0,0,1-.51,0c-.15,0-.22,0-.22.12s.09.14.28.14l1,0h.8c.38,0,.87,0,1.48,0l1,0h1.39c.44,0,.7-.12.77-.37a6.67,6.67,0,0,0,.18-1.59c0-.17,0-.25-.11-.25s-.13.07-.16.21a1.29,1.29,0,0,1-.63,1.06,1.9,1.9,0,0,1-.67.15l-.35,0h-.31a2.6,2.6,0,0,1-1.38-.23c-.2-.14-.3-.47-.32-1V57.22c0-.1,0-.14.08-.14h1l.59,0h.38c.45.05.72.23.8.56,0,.08,0,.17,0,.27v.25a.12.12,0,0,0,.13.13c.08,0,.13-.1.13-.28l0-1c0-.16,0-.31,0-.46l.07-.59c0-.07,0-.11-.09-.11s-.12.06-.23.19a1.1,1.1,0,0,1-.68.21,3.76,3.76,0,0,1-.46,0h-1.8c-.07,0-.1,0-.1-.16V52.58c0-.1,0-.15.1-.15h1l.61,0h.38a2,2,0,0,1,.7.18.68.68,0,0,1,.24.33,1.71,1.71,0,0,1,.08.29,1.85,1.85,0,0,1,0,.23c0,.14,0,.2.13.2a.09.09,0,0,0,.09,0,.18.18,0,0,0,0-.11.45.45,0,0,0,0-.19l.06-.75c0-.16,0-.29,0-.42l.07-.51c0-.09,0-.14-.08-.14Z"/></clipPath><clipPath id="clip-path-10"><path class="cls-1" d="M175.56,52.23a2.47,2.47,0,0,0-.89,2,3.23,3.23,0,0,0,.47,1.68,6.83,6.83,0,0,0,1.62,1.72l.65.51a4.35,4.35,0,0,1,1.14,1.24,2.18,2.18,0,0,1,.25,1.06,1.51,1.51,0,0,1-.47,1.11,1.93,1.93,0,0,1-1.42.53,2.09,2.09,0,0,1-1.22-.34,1.91,1.91,0,0,1-.81-1.11,3,3,0,0,1-.13-.74c0-.16,0-.24-.13-.24s-.16.12-.18.38l0,.73q0,.65,0,1.14a.47.47,0,0,0,.27.49,5.08,5.08,0,0,0,2.07.37,4.66,4.66,0,0,0,1.15-.13,3.45,3.45,0,0,0,1.1-.45,2.89,2.89,0,0,0,1.33-2.5c0-1.26-.77-2.48-2.32-3.66l-.4-.3a6.33,6.33,0,0,1-1.19-1.11,1.71,1.71,0,0,1-.31-1q0-1.47,1.68-1.47a2.08,2.08,0,0,1,1,.24,2.49,2.49,0,0,1,.31.23l.2.24a1.72,1.72,0,0,1,.3.55,1.29,1.29,0,0,1,.05.24l0,.15c0,.17,0,.26.13.26s.17-.15.17-.44,0-.49,0-.71,0-.34,0-.49l0-.51c0-.09-.07-.15-.2-.18l-.32-.08-.41-.08a8.31,8.31,0,0,0-1.15-.08,3.6,3.6,0,0,0-2.38.76"/></clipPath><clipPath id="clip-path-11"><path class="cls-1" d="M9.19,34.35c-.32-.93-.61-1.9-.85-2.91s-.42-1.94-.56-3a35.17,35.17,0,0,1-.37-5.1C7.41,13,11.86,4.18,17.91,1.6a9.18,9.18,0,0,1,7.36,0C31.32,4.18,35.77,13,35.77,23.39c0,.68,0,1.34-.06,2q-.09,1.56-.3,3.06c-.15,1.06-.35,2.09-.59,3.08C32.93,39.27,28.45,45,23.07,45.83l-.93.1-.55,0c-5.33,0-10-4.68-12.4-11.6M20.45,0a20.09,20.09,0,0,0-4.52.79,20.31,20.31,0,0,0-2.19.78C5.7,5,0,13.47,0,23.39a25.09,25.09,0,0,0,.77,6.18,24.75,24.75,0,0,0,.91,2.88A25.8,25.8,0,0,0,3,35.27,21.72,21.72,0,0,0,17.82,46.42a20,20,0,0,0,3.73.36h0a20.64,20.64,0,0,0,4.25-.45,21,21,0,0,0,3.58-1.14A22.74,22.74,0,0,0,42,30.93a24,24,0,0,0,.76-3.09,25.17,25.17,0,0,0,.36-3.05h0V23.39h0c0-9.92-5.7-18.39-13.74-21.79a21.28,21.28,0,0,0-2.2-.78A19.9,19.9,0,0,0,22.72,0c-.37,0-.75,0-1.13,0s-.76,0-1.14,0"/></clipPath><linearGradient id="linear-gradient-11" x1="-8960.03" y1="4206.41" x2="-8959.03" y2="4206.41" gradientTransform="matrix(241.53, 0, 0, -241.53, 2164122.6, 1016000.53)" xlink:href="#linear-gradient"/><clipPath id="clip-path-12"><path class="cls-1" d="M115.29,21.05l3.28-7.76,1.29-3,2.59,6.11,2,4.72,1.21,2.86H114.08ZM55.22,22.61a1,1,0,0,1-1-1.05V4.94A1.22,1.22,0,0,1,55.4,3.72h2.51a5.89,5.89,0,0,1,1,.1c3.7.63,6.56,4.57,6.56,9.35A10.24,10.24,0,0,1,62.11,21a6.76,6.76,0,0,1-3.17,1.48l-.51.07h-.17l-.35,0ZM120.9.38,106.43,34.62a7.9,7.9,0,0,1-7.15,4.84H99l-3.25.06A1.49,1.49,0,0,1,94.2,38V3a1.49,1.49,0,0,1,1.49-1.49h2.9a.37.37,0,0,0,.34-.23,0,0,0,0,1,0,0,.43.43,0,0,0,0-.11h0a.37.37,0,0,0-.37-.37h-15a.36.36,0,0,0-.37.37h0a.37.37,0,0,0,.37.37h2.9A1.49,1.49,0,0,1,88,3V38.24a1.49,1.49,0,0,1-1.46,1.48l-3.3.1h0a8.52,8.52,0,0,1-5.84-2.32L64.08,23.15c.44-.28.87-.59,1.29-.92a15,15,0,0,0,5.77-12A9.58,9.58,0,0,0,61.8.78H43.55a.36.36,0,0,0-.37.37.37.37,0,0,0,.37.37h2.9A1.49,1.49,0,0,1,47.93,3V40.1a1.49,1.49,0,0,1-1.38,1.49c-1,.06-2,.14-3,.21h0a.36.36,0,0,0-.36.37.37.37,0,0,0,.37.37l15-.95a.37.37,0,0,0,.37-.37.38.38,0,0,0-.37-.37h0L55.75,41a1.49,1.49,0,0,1-1.57-1.49V27a1.49,1.49,0,0,1,1.49-1.49h1.42a1.5,1.5,0,0,1,1.09.47L69,37.64a9.77,9.77,0,0,0,7.55,3.14l3.76-.13,2.92-.09L88,40.43l6.24-.14,4.71-.08h0l5.14-.07,3.14,0c1.62,0,3.26,0,4.92,0h0l.09,0h0l.09-.07h0s0,0,0,0a.18.18,0,0,0,.05-.07h0a.69.69,0,0,0,0-.13.33.33,0,0,0,0-.15h0a.41.41,0,0,0-.12-.14h0a.31.31,0,0,0-.19-.06h-2.38a1.48,1.48,0,0,1-1.37-2.06l4.41-10.46H118l6.27,0,2.59,0,4.49,10.62a1.38,1.38,0,0,1-1.44,1.91h0a.37.37,0,0,0-.28.13h0a.32.32,0,0,0-.09.24.36.36,0,0,0,.35.36h0l2.56,0c2.14,0,4.23.05,6.29.09l5.1.1H144l4.64.11,2.88.09,4.39.14h0a.37.37,0,0,0,.37-.34V40.3a.37.37,0,0,0-.37-.34h0l-2.95-.1a1.5,1.5,0,0,1-1.44-1.49V11.54l27.14,29.89a.38.38,0,0,0,.65-.27V3a1.49,1.49,0,0,1,1.48-1.49h3.27V.78H171.68v.74H175A1.49,1.49,0,0,1,176.44,3V30.56L149.29.66a.39.39,0,0,0-.65.28V38.2a1.49,1.49,0,0,1-1.53,1.49l-3.23-.08h-.26a8,8,0,0,1-7.18-4.88L121.94.38a.57.57,0,0,0-.52-.35.58.58,0,0,0-.52.35"/></clipPath><linearGradient id="linear-gradient-12" x1="-8960.03" y1="4206.41" x2="-8959.03" y2="4206.41" gradientTransform="matrix(241.53, 0, 0, -241.53, 2164122.6, 1015998.42)" xlink:href="#linear-gradient"/><clipPath id="clip-path-13"><path class="cls-1" d="M194.74,26.83l5.72-13.54,1.29-3,7.62,18q-6.26-.72-14.63-1.45m8-26.45-7.25,17.16s-6.7,15.87-9.2,21.77a3.3,3.3,0,0,1-3.27,2l-2.46-.16h0a.35.35,0,0,0-.26.11.36.36,0,0,0-.11.26h0a.36.36,0,0,0,.37.37l4.51.31,3,.22,3,.24a.38.38,0,0,0,.37-.37h0s0,0,0,0a.5.5,0,0,0-.05-.13l0-.06a.39.39,0,0,0-.1-.08l0,0h0l-.12,0h0l-.67-.05a1.49,1.49,0,0,1-1.25-2.07l4.3-10.19c6.69.56,12.37,1.15,17.09,1.7l4.57,10.82a1.48,1.48,0,0,1-1.55,2l-.17,0a.38.38,0,0,0-.37.37.37.37,0,0,0,.32.36h0l.38.05,13,2.08h0a.45.45,0,0,0,.15-.89h0l-1.3-.26a5.43,5.43,0,0,1-3.88-3.13l-.63-1.41-1.35-3.2-3.13-7.43L203.83.38a.57.57,0,0,0-.52-.35.58.58,0,0,0-.52.35"/></clipPath><linearGradient id="linear-gradient-13" x1="-8960.03" y1="4206.41" x2="-8959.03" y2="4206.41" gradientTransform="matrix(241.53, 0, 0, -241.53, 2164122.6, 1016000.67)" xlink:href="#linear-gradient"/></defs><g id="Layer_2" data-name="Layer 2"><g id="Isolation_Mode" data-name="Isolation Mode"><g class="cls-2"><rect class="cls-3" x="47.03" y="51.67" width="11.17" height="10.84"/></g><g class="cls-4"><rect class="cls-5" x="61.92" y="51.55" width="7.15" height="11"/></g><g class="cls-6"><rect class="cls-3" x="75.29" y="51.47" width="5.92" height="11.25"/></g><g class="cls-7"><rect class="cls-3" x="87.32" y="51.67" width="4.58" height="10.84"/></g><g class="cls-8"><rect class="cls-9" x="98.29" y="51.67" width="11.58" height="10.97"/></g><g class="cls-10"><rect class="cls-5" x="114.98" y="51.55" width="7.15" height="11"/></g><g class="cls-11"><rect class="cls-12" x="127.82" y="51.43" width="11.9" height="11.26"/></g><g class="cls-13"><rect class="cls-3" x="145.49" y="51.47" width="9.83" height="11.25"/></g><g class="cls-14"><rect class="cls-5" x="161.01" y="51.55" width="7.15" height="11"/></g><g class="cls-15"><rect class="cls-3" x="174.37" y="51.47" width="5.92" height="11.25"/></g><g class="cls-16"><rect class="cls-17" width="43.18" height="46.78"/></g><g class="cls-18"><rect class="cls-19" x="43.18" y="0.03" width="140.89" height="42.51"/></g><g class="cls-20"><rect class="cls-21" x="180.24" y="0.03" width="47.12" height="47.04"/></g></g></g></svg>