<svg xmlns="http://www.w3.org/2000/svg" xmlns:xlink="http://www.w3.org/1999/xlink" viewBox="0 0 500.08 482.76"><defs><style>.cls-1{fill:none;}.cls-2{clip-path:url(#clip-path);}.cls-3{fill:url(#linear-gradient);}.cls-4{clip-path:url(#clip-path-2);}.cls-5{fill:url(#linear-gradient-2);}.cls-6{clip-path:url(#clip-path-3);}.cls-7{clip-path:url(#clip-path-4);}.cls-8{clip-path:url(#clip-path-5);}.cls-9{fill:url(#linear-gradient-5);}.cls-10{clip-path:url(#clip-path-6);}.cls-11{clip-path:url(#clip-path-7);}.cls-12{fill:url(#linear-gradient-7);}.cls-13{clip-path:url(#clip-path-8);}.cls-14{clip-path:url(#clip-path-9);}.cls-15{clip-path:url(#clip-path-10);}.cls-16{clip-path:url(#clip-path-11);}.cls-17{fill:url(#linear-gradient-11);}.cls-18{clip-path:url(#clip-path-12);}.cls-19{fill:url(#linear-gradient-12);}.cls-20{clip-path:url(#clip-path-13);}.cls-21{fill:url(#linear-gradient-13);}.cls-22{clip-path:url(#clip-path-14);}.cls-23{fill:url(#linear-gradient-14);}.cls-24{clip-path:url(#clip-path-15);}.cls-25{fill:url(#linear-gradient-15);}.cls-26{clip-path:url(#clip-path-16);}.cls-27{fill:url(#linear-gradient-16);}.cls-28{clip-path:url(#clip-path-17);}.cls-29{fill:url(#linear-gradient-17);}.cls-30{clip-path:url(#clip-path-18);}.cls-31{fill:url(#linear-gradient-18);}.cls-32{clip-path:url(#clip-path-19);}.cls-33{fill:url(#linear-gradient-19);}</style><clipPath id="clip-path" transform="translate(0 0)"><path class="cls-1" d="M110.55,470.67a.56.56,0,0,1-.27-.56v-9.59a.42.42,0,0,1,.27-.45,7.08,7.08,0,0,1,1.64-.12,4.48,4.48,0,0,1,3.09,1.2,4.89,4.89,0,0,1,1.19,1.77,7.36,7.36,0,0,1,.5,2.8,7.45,7.45,0,0,1-.57,3.07,4.07,4.07,0,0,1-1.27,1.66,3.77,3.77,0,0,1-2.21.54,7.5,7.5,0,0,1-2.37-.32m-2.86-12.11a.85.85,0,0,0-.23,0l-3.33-.06c-.46,0-.68.09-.68.27s.18.29.53.29a5.75,5.75,0,0,1,1.22.1,1.7,1.7,0,0,1,1.33,1.8l.07,1.93v12.38q0,1.11,0,1.86c0,1.27-.06,2.19-.12,2.78-.16,1.08-.46,1.66-.92,1.74a5.33,5.33,0,0,1-1.12.12c-.33,0-.49.09-.49.26s.21.31.63.31l4.45-.09a.78.78,0,0,0,.24,0l3.68.06c.42,0,.62-.1.62-.31s-.12-.26-.38-.26a12.41,12.41,0,0,1-1.52-.12c-.7-.1-1.11-.69-1.21-1.74-.06-.59-.1-1.51-.12-2.78q0-.75,0-1.86V472.7c0-.18.08-.26.24-.26l2.7.06a.69.69,0,0,1,.57.23l3.08,4.34c1,1.35,1.73,2.34,2.27,3a8.18,8.18,0,0,0,2,1.66,7.16,7.16,0,0,0,3.33.6h3c.39,0,.59-.1.59-.31s-.13-.26-.38-.26a5.44,5.44,0,0,1-.87-.09l-.21,0a1.1,1.1,0,0,1-.29-.09,1,1,0,0,1-.33-.13,3.39,3.39,0,0,1-.45-.15,8.55,8.55,0,0,1-2.2-1.74q-1.22-1.31-3-3.58l-3.74-4.72a13.07,13.07,0,0,0,3.24-3.63,7,7,0,0,0,.87-3.44,5.56,5.56,0,0,0-.72-2.75,5,5,0,0,0-1.39-1.57,7.67,7.67,0,0,0-2.77-1.11,15.62,15.62,0,0,0-3-.24Z"/></clipPath><linearGradient id="linear-gradient" x1="-7891.88" y1="3279.66" x2="-7889.68" y2="3279.66" gradientTransform="matrix(241.53, 0, 0, -241.53, 1906135.19, 792608.56)" gradientUnits="userSpaceOnUse"><stop offset="0" stop-color="#bc955e"/><stop offset="0.28" stop-color="#987041"/><stop offset="0.59" stop-color="#f4c37f"/><stop offset="0.63" stop-color="#fecc86"/><stop offset="0.82" stop-color="#c89b62"/><stop offset="1" stop-color="#987041"/></linearGradient><clipPath id="clip-path-2" transform="translate(0 0)"><path class="cls-1" d="M150.6,458.31l-.12,0a8.25,8.25,0,0,1-1.34.19l-1.34,0h-6.44l-4.49-.09c-.45,0-.68.09-.68.27s.17.29.53.29a5.75,5.75,0,0,1,1.22.1,1.7,1.7,0,0,1,1.33,1.8l.06,1.93v12.38q0,1.11,0,1.86c0,1.27-.06,2.19-.12,2.78-.15,1.08-.45,1.66-.91,1.74a5.43,5.43,0,0,1-1.13.12c-.32,0-.48.09-.48.26s.21.31.62.31l2.15-.06c.33,0,.67,0,1,0h.75c.82,0,1.9,0,3.23.09l2.33.06,3.06,0q1.46,0,1.68-.81a14.54,14.54,0,0,0,.4-3.5q0-.57-.24-.57c-.18,0-.29.16-.35.48a2.85,2.85,0,0,1-1.4,2.32,3.84,3.84,0,0,1-1.46.33l-.78.06H147a5.8,5.8,0,0,1-3-.51,2.74,2.74,0,0,1-.71-2.14v-7.39c0-.21.06-.31.18-.31l2.28,0c.52,0,.95,0,1.31,0a7.28,7.28,0,0,1,.83,0c1,.1,1.58.51,1.75,1.23a4.26,4.26,0,0,1,.09.6l0,.54c0,.19.09.28.27.28s.29-.2.29-.6l.12-2.11q0-.54.09-1l.15-1.29c0-.16-.07-.25-.21-.25s-.27.14-.5.42a2.36,2.36,0,0,1-1.49.46,7.26,7.26,0,0,1-1,0c-.39,0-.89,0-1.49,0h-2.49q-.21,0-.21-.36v-8c0-.21.07-.32.21-.32l2.25,0,1.34.08a6.69,6.69,0,0,1,.83,0,3.9,3.9,0,0,1,1.55.4,1.58,1.58,0,0,1,.54.72,5.6,5.6,0,0,1,.17.63c0,.18,0,.35,0,.51s.1.45.28.45a.21.21,0,0,0,.21-.12.6.6,0,0,0,.09-.24,1.31,1.31,0,0,0,.05-.42l.12-1.65c0-.34.05-.65.09-.91l.15-1.14q0-.3-.18-.3Z"/></clipPath><linearGradient id="linear-gradient-2" x1="-7891.88" y1="3279.66" x2="-7889.68" y2="3279.66" gradientTransform="matrix(241.53, 0, 0, -241.53, 1906135.19, 792608.53)" xlink:href="#linear-gradient"/><clipPath id="clip-path-3" transform="translate(0 0)"><path class="cls-1" d="M168.22,459.7a5.39,5.39,0,0,0-2,4.28,7,7,0,0,0,1,3.7,14.94,14.94,0,0,0,3.57,3.79l1.43,1.12a9.4,9.4,0,0,1,2.49,2.71,4.82,4.82,0,0,1,.57,2.34,3.37,3.37,0,0,1-1,2.44,4.22,4.22,0,0,1-3.13,1.17,4.68,4.68,0,0,1-2.69-.74,4.23,4.23,0,0,1-1.77-2.45,6.17,6.17,0,0,1-.29-1.62q0-.54-.3-.54c-.21,0-.34.28-.38.83l-.09,1.61q-.06,1.41-.06,2.52a1.05,1.05,0,0,0,.59,1.08,11.12,11.12,0,0,0,4.55.82,10.5,10.5,0,0,0,2.52-.29,7.71,7.71,0,0,0,2.43-1,6.45,6.45,0,0,0,2.3-2.61,6.82,6.82,0,0,0,.62-2.89q0-4.15-5.11-8l-.86-.66a12.81,12.81,0,0,1-2.62-2.45,3.55,3.55,0,0,1-.68-2.09q0-3.25,3.69-3.25a4.55,4.55,0,0,1,2.28.53,4.15,4.15,0,0,1,.69.52l.44.51a3.86,3.86,0,0,1,.65,1.22,3,3,0,0,1,.12.53l0,.32c0,.38.09.57.3.57s.35-.32.35-.95,0-1.09,0-1.57,0-.74,0-1.08l.06-1.13c0-.19-.15-.32-.44-.38l-.72-.18c-.28-.07-.58-.12-.89-.18a16.83,16.83,0,0,0-2.53-.18,7.91,7.91,0,0,0-5.23,1.68"/></clipPath><clipPath id="clip-path-4" transform="translate(0 0)"><path class="cls-1" d="M198.11,458.53a3.1,3.1,0,0,0-.49,0l-4.8-.09q-.75,0-.75.24c0,.22.17.32.51.32a4.31,4.31,0,0,1,1.1.13c.65.15,1,.73,1.07,1.77l.06,1.93v12.49c0,.75,0,1.38,0,1.91q0,1.89-.12,2.79c-.1.94-.4,1.47-.9,1.57a5.43,5.43,0,0,1-1.13.12c-.33,0-.49.09-.49.26s.2.31.62.31l4.73-.09a1.23,1.23,0,0,0,.29,0l3.77.06c.39,0,.59-.1.59-.31s-.17-.26-.5-.26a12,12,0,0,1-1.6-.12c-.72-.1-1.13-.62-1.25-1.54q-.09-.93-.09-2.82c0-.53,0-1.16,0-1.91V462.86l.06-1.93c.06-1.08.45-1.68,1.16-1.8a6.19,6.19,0,0,1,.92-.1c.34,0,.51-.1.51-.32s-.22-.24-.66-.24Z"/></clipPath><clipPath id="clip-path-5" transform="translate(0 0)"><path class="cls-1" d="M224.9,480.71a2.41,2.41,0,0,1-1.28-.86,1.1,1.1,0,0,1-.15-.41,4.31,4.31,0,0,1-.09-.63l-.09-1.35q-.06-1.2-.06-6.38v-7.67c0-1.25,0-2.12,0-2.62a.64.64,0,0,1,.36-.63,3.84,3.84,0,0,1,.89-.16c.41,0,.79-.05,1.15-.05.7,0,1.36,0,2,.09a12,12,0,0,1,2.27.44,11.45,11.45,0,0,1,2.34.94,11.75,11.75,0,0,1,2.23,1.68,9,9,0,0,1,2,2.93,11.86,11.86,0,0,1,1,5,15.58,15.58,0,0,1-.56,4.48,7.19,7.19,0,0,1-2.06,3.38,10.54,10.54,0,0,1-7.16,2.26,8.4,8.4,0,0,1-2.81-.4m-.15-22.24-1.93.06a3.88,3.88,0,0,0-.56,0l-5.39-.09c-.45,0-.68.09-.68.27s.18.29.53.29a5.75,5.75,0,0,1,1.22.1,1.7,1.7,0,0,1,1.33,1.8l.06,1.93v12.38c0,.74,0,1.36,0,1.86,0,1.27-.06,2.19-.12,2.78-.15,1.08-.45,1.66-.91,1.74a5.35,5.35,0,0,1-1.13.12c-.32,0-.48.09-.48.26s.21.31.62.31l2.15-.06c.33,0,.67,0,1,0h.74c.33,0,.79,0,1.37.06l1.68.12c.75.07,1.35.11,1.8.13.69.05,1.29.07,1.78.07a18.25,18.25,0,0,0,3.86-.38,14.52,14.52,0,0,0,3-.91,14.9,14.9,0,0,0,2.14-1.23,10.9,10.9,0,0,0,1.44-1.2,12,12,0,0,0,2.36-3.61,13.2,13.2,0,0,0,1-5.19,12.2,12.2,0,0,0-.92-4.81,10,10,0,0,0-2.09-3.22A10.33,10.33,0,0,0,235.8,460a13.45,13.45,0,0,0-3.21-1.07,23.92,23.92,0,0,0-3.33-.38l-1.58-.06Z"/></clipPath><linearGradient id="linear-gradient-5" x1="-7891.88" y1="3279.66" x2="-7889.68" y2="3279.66" gradientTransform="matrix(241.53, 0, 0, -241.53, 1906135.19, 792608.63)" xlink:href="#linear-gradient"/><clipPath id="clip-path-6" transform="translate(0 0)"><path class="cls-1" d="M267.31,458.31l-.12,0a8.25,8.25,0,0,1-1.34.19l-1.33,0h-6.45l-4.49-.09c-.45,0-.68.09-.68.27s.18.29.53.29a5.75,5.75,0,0,1,1.22.1,1.71,1.71,0,0,1,1.34,1.8l.06,1.93v12.38q0,1.11,0,1.86c0,1.27-.07,2.19-.12,2.78-.16,1.08-.46,1.66-.92,1.74a5.33,5.33,0,0,1-1.12.12c-.33,0-.49.09-.49.26s.21.31.62.31l2.15-.06c.33,0,.67,0,1,0h.75c.83,0,1.91,0,3.23.09l2.33.06,3.06,0q1.45,0,1.68-.81a14.54,14.54,0,0,0,.4-3.5q0-.57-.24-.57c-.18,0-.29.16-.35.48a2.85,2.85,0,0,1-1.4,2.32,3.84,3.84,0,0,1-1.46.33l-.78.06h-.68a5.73,5.73,0,0,1-3-.51,2.71,2.71,0,0,1-.72-2.14v-7.39c0-.21.06-.31.18-.31l2.28,0c.52,0,.95,0,1.31,0a7.37,7.37,0,0,1,.84,0c1,.1,1.57.51,1.75,1.23a4.26,4.26,0,0,1,.09.6l0,.54c0,.19.09.28.27.28s.29-.2.29-.6l.12-2.11q0-.54.09-1l.15-1.29c0-.16-.07-.25-.21-.25s-.27.14-.5.42a2.31,2.31,0,0,1-1.49.46,7.26,7.26,0,0,1-1,0c-.39,0-.89,0-1.48,0h-2.5q-.21,0-.21-.36v-8c0-.21.07-.32.21-.32l2.25,0,1.34.08a7.13,7.13,0,0,1,.84,0,4,4,0,0,1,1.55.4,1.64,1.64,0,0,1,.53.72,5.6,5.6,0,0,1,.17.63,4.63,4.63,0,0,1,0,.51q0,.45.27.45a.21.21,0,0,0,.21-.12.6.6,0,0,0,.09-.24,1.07,1.07,0,0,0,.05-.42l.12-1.65c0-.34.05-.65.09-.91l.16-1.14c0-.2-.07-.3-.19-.3Z"/></clipPath><clipPath id="clip-path-7" transform="translate(0 0)"><path class="cls-1" d="M284.28,459,284,477.68c0,2.42-.34,3.72-1,3.91a5.39,5.39,0,0,1-1.4.15c-.34,0-.5.09-.5.26s.23.31.68.31c.65,0,1.38,0,2.18-.06l1.75,0a.52.52,0,0,0,.18,0l1.75.06H289c.48,0,.72-.1.72-.31s-.18-.26-.53-.26a5.22,5.22,0,0,1-1.62-.21c-.66-.24-1-1.41-1.09-3.5l-.34-13.26h.1l4.88,5.37c.9.95,1.74,1.81,2.52,2.59l7.39,7.47c.74.76,1.34,1.36,1.81,1.8s.81.7,1.05.7.41-.33.41-1l.33-19.9c0-1.58.41-2.48,1.16-2.68a4.1,4.1,0,0,1,.94-.1c.37,0,.55-.09.55-.29s-.24-.27-.72-.27l-2,0a1.86,1.86,0,0,1-.36,0h-.17a.33.33,0,0,0-.15,0l-1.67,0a1.09,1.09,0,0,1-.26,0l-2.24,0c-.53,0-.8.09-.8.27s.16.29.48.29h.38a2.76,2.76,0,0,1,.44,0,2.88,2.88,0,0,1,.84.15c.68.3,1,1.24,1.05,2.83l.32,14.18h-.15l-1.84-1.93a1.23,1.23,0,0,0-.26-.24.27.27,0,0,0-.12-.14s0,0,0,0,0,0,0,0,0-.07-.06-.07l-.5-.57L289.1,462.41l-3.6-3.88c-.13-.15-.24-.25-.32-.33a.76.76,0,0,0-.5-.27c-.26,0-.4.36-.4,1.08"/></clipPath><linearGradient id="linear-gradient-7" x1="-7891.88" y1="3279.66" x2="-7889.68" y2="3279.66" gradientTransform="matrix(241.53, 0, 0, -241.53, 1906135.19, 792608.53)" xlink:href="#linear-gradient"/><clipPath id="clip-path-8" transform="translate(0 0)"><path class="cls-1" d="M327.66,458.91a11.91,11.91,0,0,0-4,2.45,11.2,11.2,0,0,0-1.84,2.22,10.32,10.32,0,0,0-1.09,2.33,14.83,14.83,0,0,0-.57,2.25A11.6,11.6,0,0,0,320,470a14.48,14.48,0,0,0,.77,4.81,11.19,11.19,0,0,0,3.09,4.51,13.13,13.13,0,0,0,4.79,2.65,19.78,19.78,0,0,0,5.88.79,23.31,23.31,0,0,0,3.09-.19,11.25,11.25,0,0,0,2.53-.53,1.36,1.36,0,0,0,.8-.93,17.06,17.06,0,0,0,.47-2.36q.21-1.49.21-1.83t-.27-.48c-.19,0-.33.21-.41.63a4.38,4.38,0,0,1-1.05,2.08c-1,1.18-2.92,1.78-5.7,1.78a9.1,9.1,0,0,1-6.48-2.81,11,11,0,0,1-2.4-3.51,12.67,12.67,0,0,1-.93-4.91,15.2,15.2,0,0,1,.59-4.46,8.45,8.45,0,0,1,2.27-3.71,8.32,8.32,0,0,1,5.86-2c3,0,5.11.66,6.32,2a4.31,4.31,0,0,1,1.22,2.9q0,.69.3.69c.21,0,.34-.24.38-.72a5.39,5.39,0,0,0,0-.66l0-1.87c0-.36,0-.65,0-.88q0-.63.09-1.2l.06-.54c0-.22-.15-.35-.45-.38l-.73-.09-1.55-.31-.84-.13c-.83-.11-1.51-.19-2.05-.23q-1.12-.09-2.46-.09a17.43,17.43,0,0,0-5.83.89"/></clipPath><clipPath id="clip-path-9" transform="translate(0 0)"><path class="cls-1" d="M368.57,458.31a.31.31,0,0,1-.13,0,8.06,8.06,0,0,1-1.33.19l-1.34,0h-6.45l-4.48-.09q-.69,0-.69.27c0,.2.18.29.53.29a5.68,5.68,0,0,1,1.22.1,1.7,1.7,0,0,1,1.34,1.8l.06,1.93v12.38q0,1.11,0,1.86c0,1.27-.06,2.19-.12,2.78-.15,1.08-.46,1.66-.91,1.74a5.5,5.5,0,0,1-1.13.12c-.33,0-.48.09-.48.26s.2.31.62.31l2.14-.06c.33,0,.68,0,1,0h.75q1.24,0,3.24.09l2.32.06,3.06,0c1,0,1.53-.27,1.69-.81a15.07,15.07,0,0,0,.39-3.5q0-.57-.24-.57c-.17,0-.29.16-.35.48a2.82,2.82,0,0,1-1.4,2.32,3.79,3.79,0,0,1-1.46.33l-.77.06H365a5.73,5.73,0,0,1-3-.51,2.71,2.71,0,0,1-.72-2.14v-7.39c0-.21.06-.31.19-.31l2.28,0c.51,0,.95,0,1.3,0a7.37,7.37,0,0,1,.84,0c1,.1,1.57.51,1.75,1.23a4.26,4.26,0,0,1,.09.6l0,.54c0,.19.09.28.27.28s.29-.2.29-.6l.12-2.11q0-.54.09-1l.16-1.29c0-.16-.07-.25-.22-.25s-.26.14-.5.42a2.31,2.31,0,0,1-1.49.46,7.09,7.09,0,0,1-1,0c-.4,0-.89,0-1.49,0h-2.49c-.15,0-.22-.12-.22-.36v-8c0-.21.07-.32.22-.32l2.25,0,1.33.08a6.9,6.9,0,0,1,.84,0,3.9,3.9,0,0,1,1.55.4,1.64,1.64,0,0,1,.53.72,5.6,5.6,0,0,1,.17.63,4.63,4.63,0,0,1,0,.51q0,.45.27.45a.22.22,0,0,0,.22-.12.6.6,0,0,0,.09-.24,1.39,1.39,0,0,0,0-.42l.12-1.65c0-.34.06-.65.1-.91l.15-1.14q0-.3-.18-.3Z"/></clipPath><clipPath id="clip-path-10" transform="translate(0 0)"><path class="cls-1" d="M386.16,459.7a5.33,5.33,0,0,0-2,4.28,7,7,0,0,0,1,3.7,14.94,14.94,0,0,0,3.57,3.79l1.43,1.12a9.4,9.4,0,0,1,2.49,2.71,4.82,4.82,0,0,1,.56,2.34,3.36,3.36,0,0,1-1,2.44,4.24,4.24,0,0,1-3.13,1.17,4.68,4.68,0,0,1-2.69-.74,4.23,4.23,0,0,1-1.77-2.45,6.17,6.17,0,0,1-.29-1.62q0-.54-.3-.54c-.21,0-.34.28-.38.83l-.09,1.61q-.06,1.41-.06,2.52a1.05,1.05,0,0,0,.59,1.08,11.12,11.12,0,0,0,4.55.82,10.5,10.5,0,0,0,2.52-.29,7.71,7.71,0,0,0,2.43-1,6.45,6.45,0,0,0,2.3-2.61,6.82,6.82,0,0,0,.62-2.89q0-4.15-5.1-8l-.87-.66a12.81,12.81,0,0,1-2.62-2.45,3.62,3.62,0,0,1-.68-2.09q0-3.25,3.69-3.25a4.58,4.58,0,0,1,2.28.53,4.15,4.15,0,0,1,.69.52l.44.51a3.86,3.86,0,0,1,.65,1.22,3,3,0,0,1,.12.53l0,.32c0,.38.11.57.31.57s.35-.32.35-.95,0-1.09,0-1.57,0-.74,0-1.08l.06-1.13c0-.19-.15-.32-.44-.38l-.72-.18c-.28-.07-.58-.12-.89-.18a16.92,16.92,0,0,0-2.53-.18,7.89,7.89,0,0,0-5.22,1.68"/></clipPath><clipPath id="clip-path-11" transform="translate(0 0)"><path class="cls-1" d="M20.22,420.37c-.72-2-1.34-4.19-1.88-6.4s-.92-4.27-1.24-6.49a78.69,78.69,0,0,1-.81-11.22c0-22.95,9.79-42.25,23.09-47.93a20.17,20.17,0,0,1,16.21,0c13.29,5.68,23.08,25,23.08,47.93,0,1.49,0,2.95-.12,4.4-.13,2.29-.35,4.54-.67,6.73s-.77,4.59-1.3,6.78c-4.15,17-14,29.5-25.84,31.45l-2,.22c-.4,0-.81.05-1.21.05-11.73,0-21.94-10.3-27.27-25.52M45,344.89a43.82,43.82,0,0,0-10,1.72,45.26,45.26,0,0,0-4.82,1.72C12.54,355.82,0,374.45,0,396.26a55.74,55.74,0,0,0,1.69,13.6,53.4,53.4,0,0,0,2,6.32,50.78,50.78,0,0,0,2.89,6.2c6.92,12.7,18.72,21.88,32.61,24.54a44.54,44.54,0,0,0,8.21.79h.09a43.65,43.65,0,0,0,9.33-1,44.57,44.57,0,0,0,7.9-2.51c13-5.48,23.2-17,27.71-31.35a55.63,55.63,0,0,0,1.67-6.79,57,57,0,0,0,.78-6.73H95v-3.06h0c0-21.81-12.54-40.44-30.22-47.93a45.43,45.43,0,0,0-4.83-1.72A43.73,43.73,0,0,0,50,344.89c-.82-.05-1.66-.08-2.49-.08s-1.68,0-2.5.08"/></clipPath><linearGradient id="linear-gradient-11" x1="-7891.88" y1="3279.83" x2="-7889.68" y2="3279.83" gradientTransform="matrix(241.53, 0, 0, -241.53, 1906135.19, 792574.86)" xlink:href="#linear-gradient"/><clipPath id="clip-path-12" transform="translate(0 0)"><path class="cls-1" d="M253.59,391.12l7.21-17.07,2.84-6.72,5.68,13.45,4.38,10.38,2.67,6.29H250.91Zm-132.14,3.42a2.29,2.29,0,0,1-2.28-2.3V355.68a2.68,2.68,0,0,1,2.68-2.68h5.51a14.09,14.09,0,0,1,2.27.21c8.16,1.38,14.44,10.05,14.44,20.57,0,7.22-3,13.58-7.46,17.3a14.78,14.78,0,0,1-7,3.26c-.36.07-.74.12-1.11.16l-.38,0c-.26,0-.51,0-.78,0Zm144.48-48.9L234.1,421a17.39,17.39,0,0,1-15.74,10.63h-.7l-7.15.11a3.24,3.24,0,0,1-3.31-3.26v-77a3.27,3.27,0,0,1,3.27-3.28h6.37a.8.8,0,0,0,.75-.5s0-.06,0-.08a.64.64,0,0,0,0-.23h0a.82.82,0,0,0-.8-.82H183.8a.81.81,0,0,0-.8.82h0a.81.81,0,0,0,.81.81h6.38a3.28,3.28,0,0,1,3.27,3.28v77.48a3.28,3.28,0,0,1-3.19,3.27l-7.27.21h0a18.74,18.74,0,0,1-12.85-5.1l-29.21-31.55c1-.63,1.92-1.3,2.83-2a33,33,0,0,0,12.7-26.4,20.42,20.42,0,0,0-12.93-19.16,20.91,20.91,0,0,0-7.61-1.64H95.79a.82.82,0,1,0,0,1.64h6.37a3.27,3.27,0,0,1,3.27,3.28V433a3.28,3.28,0,0,1-3.05,3.27l-6.59.46h0a.82.82,0,0,0-.81.82.82.82,0,0,0,.82.82l33-2.09a.82.82,0,0,0,0-1.64h0l-6.18.35a3.27,3.27,0,0,1-3.45-3.27V404.19a3.27,3.27,0,0,1,3.27-3.27h3.13A3.27,3.27,0,0,1,128,402l23.73,25.64a21.61,21.61,0,0,0,16.6,6.91l8.28-.28L183,434c3.44-.11,6.92-.21,10.46-.29q6.75-.18,13.74-.31,5.12-.1,10.35-.18h.11q5.59-.09,11.32-.15l6.9-.07L246.7,433h0a.58.58,0,0,0,.19,0l.12,0h0l.2-.14h0l0,0h0s0-.06.06-.09a1,1,0,0,0,.11-.17h0v0a.87.87,0,0,0,0-.28.88.88,0,0,0-.06-.33l0,0h0a.84.84,0,0,0-.25-.31h0l0,0a.84.84,0,0,0-.42-.14h-.06l-5.16,0a3.27,3.27,0,0,1-3-4.55l9.71-23,10.64,0h.73q7,0,13.79,0l5.7,0L289,427.23a3,3,0,0,1-3.17,4.2h0a.85.85,0,0,0-.62.29h0a.78.78,0,0,0-.21.53.82.82,0,0,0,.77.81h.08l5.63.07q7.05.08,13.83.2c3.8.07,7.53.15,11.21.24h.25l10.22.26,6.32.18,9.66.32h0a.83.83,0,0,0,.8-.75s0,0,0-.07,0,0,0-.07a.81.81,0,0,0-.8-.75h0l-6.49-.22a3.28,3.28,0,0,1-3.17-3.27v-59L393,435.94a.84.84,0,0,0,1.43-.6v-83.9a3.27,3.27,0,0,1,3.27-3.28h7.19v-1.64H377.62v1.64h7.19a3.27,3.27,0,0,1,3.27,3.28V412l-59.7-65.76a.84.84,0,0,0-1.43.61v82a3.26,3.26,0,0,1-3.35,3.27l-7.12-.17h-.56a17.56,17.56,0,0,1-15.79-10.75l-31.92-75.53a1.23,1.23,0,0,0-1.14-.76,1.25,1.25,0,0,0-1.14.76"/></clipPath><linearGradient id="linear-gradient-12" x1="-7891.88" y1="3279.84" x2="-7889.68" y2="3279.84" gradientTransform="matrix(241.53, 0, 0, -241.53, 1906135.19, 792572.76)" xlink:href="#linear-gradient"/><clipPath id="clip-path-13" transform="translate(0 0)"><path class="cls-1" d="M428.33,403.83l12.58-29.78,2.84-6.72L460.52,407c-9.17-1-19.88-2.14-32.19-3.19m17.72-58.19L430.1,383.39l-20.24,47.89a7.25,7.25,0,0,1-7.18,4.42l-5.42-.35h0a.84.84,0,0,0-.57.23.85.85,0,0,0-.24.57v0a.81.81,0,0,0,.81.81c3.8.24,6.34.42,9.92.67l6.66.5,6.69.51a.82.82,0,0,0,.82-.81,0,0,0,0,0,0,0h0s0-.05,0-.08a.92.92,0,0,0-.09-.28l-.09-.13a.83.83,0,0,0-.23-.19s0,0-.06-.05h0a.82.82,0,0,0-.26-.06h0l-1.48-.12a3.28,3.28,0,0,1-2.76-4.54L425.75,410c14.69,1.23,27.19,2.51,37.59,3.74l10.05,23.78A3.28,3.28,0,0,1,470,442l-.38-.05a.81.81,0,0,0-.81.81.8.8,0,0,0,.69.79v0l.85.11,28.5,4.58h0a1,1,0,0,0,.33-2h0l-2.86-.58a11.91,11.91,0,0,1-8.53-6.87l-1.38-3.12-3-7-6.9-16.33-28.19-66.73a1.23,1.23,0,0,0-2.28,0"/></clipPath><linearGradient id="linear-gradient-13" x1="-7891.88" y1="3279.83" x2="-7889.68" y2="3279.83" gradientTransform="matrix(241.53, 0, 0, -241.53, 1906135.19, 792575.01)" xlink:href="#linear-gradient"/><clipPath id="clip-path-14" transform="translate(0 0)"><path class="cls-1" d="M122.18,156.75q-.41-5.06-.41-10.21a128.23,128.23,0,0,1,255.6-14.87,114.76,114.76,0,0,0-132.49,8.41l-.07,0a118.59,118.59,0,0,1-74.89,26.56,119.64,119.64,0,0,1-47.74-9.93m-18.72-10.2.06,0A114.75,114.75,0,0,0,255.13,153l.08,0a119.33,119.33,0,0,1,141.34-6.42h0a146.55,146.55,0,1,0-293.09,0"/></clipPath><linearGradient id="linear-gradient-14" x1="-7891.88" y1="3280.51" x2="-7889.68" y2="3280.51" gradientTransform="matrix(241.53, 0, 0, -241.53, 1906135.19, 792435.29)" xlink:href="#linear-gradient"/><clipPath id="clip-path-15" transform="translate(0 0)"><path class="cls-1" d="M267.44,257.17a60.33,60.33,0,0,0-20.13,10.73l0,0a62.66,62.66,0,0,1-66.68,7.7A146.66,146.66,0,0,0,327,271.27l.05,0,0,0a59.74,59.74,0,0,0-16.89-11.42,60.48,60.48,0,0,0-42.64-2.68"/></clipPath><linearGradient id="linear-gradient-15" x1="-7891.88" y1="3280.1" x2="-7889.68" y2="3280.1" gradientTransform="matrix(241.53, 0, 0, -241.53, 1906135.19, 792519.18)" xlink:href="#linear-gradient"/><clipPath id="clip-path-16" transform="translate(0 0)"><path class="cls-1" d="M281.85,161.59a109.71,109.71,0,0,0-36.76,19.6l-.08,0a114.34,114.34,0,0,1-135.62,6.15,110.07,110.07,0,0,0,145.53,6.21l.08,0a114.36,114.36,0,0,1,135.62-6.15,110.27,110.27,0,0,0-108.77-25.81"/></clipPath><linearGradient id="linear-gradient-16" x1="-7891.88" y1="3280.29" x2="-7889.68" y2="3280.29" gradientTransform="matrix(241.53, 0, 0, -241.53, 1906135.19, 792479.9)" xlink:href="#linear-gradient"/><clipPath id="clip-path-17" transform="translate(0 0)"><path class="cls-1" d="M277.45,206.58a94.56,94.56,0,0,0-31.68,16.9l-.07,0a98.51,98.51,0,0,1-116.87,5.3,94.87,94.87,0,0,0,125.41,5.36l.06,0a98.55,98.55,0,0,1,116.88-5.3,95,95,0,0,0-93.73-22.25"/></clipPath><linearGradient id="linear-gradient-17" x1="-7891.88" y1="3280.19" x2="-7889.68" y2="3280.19" gradientTransform="matrix(241.53, 0, 0, -241.53, 1906135.19, 792498.74)" xlink:href="#linear-gradient"/><clipPath id="clip-path-18" transform="translate(0 0)"><path class="cls-1" d="M149.25,146.54c0,1.12.05,2.23.08,3.34a119.68,119.68,0,0,0,18.41,1.78c-.1-1.69-.17-3.4-.17-5.12A82.42,82.42,0,0,1,317.75,99.6,115.59,115.59,0,0,1,340.39,102a100.76,100.76,0,0,0-191.14,44.53"/></clipPath><linearGradient id="linear-gradient-18" x1="-7891.88" y1="3280.5" x2="-7889.68" y2="3280.5" gradientTransform="matrix(241.53, 0, 0, -241.53, 1906135.19, 792439.59)" xlink:href="#linear-gradient"/><clipPath id="clip-path-19" transform="translate(0 0)"><path class="cls-1" d="M195.05,146.54c0,.82,0,1.64.06,2.45a118.69,118.69,0,0,0,18.49-5.59,36.52,36.52,0,0,1,50.17-30.71A113.69,113.69,0,0,1,285,104.13a55,55,0,0,0-89.91,42.41"/></clipPath><linearGradient id="linear-gradient-19" x1="-7891.88" y1="3280.45" x2="-7889.68" y2="3280.45" gradientTransform="matrix(241.53, 0, 0, -241.53, 1906135.19, 792449.39)" xlink:href="#linear-gradient"/></defs><g id="Layer_2" data-name="Layer 2"><g id="Layer_1-2" data-name="Layer 1"><g class="cls-2"><rect class="cls-3" x="103.45" y="458.47" width="24.57" height="23.85"/></g><g class="cls-4"><rect class="cls-5" x="136.19" y="458.2" width="15.72" height="24.2"/></g><g class="cls-6"><rect class="cls-3" x="165.61" y="458.02" width="13.01" height="24.74"/></g><g class="cls-7"><rect class="cls-3" x="192.07" y="458.47" width="10.07" height="23.85"/></g><g class="cls-8"><rect class="cls-9" x="216.19" y="458.47" width="25.47" height="24.14"/></g><g class="cls-10"><rect class="cls-5" x="252.9" y="458.2" width="15.72" height="24.2"/></g><g class="cls-11"><rect class="cls-12" x="281.14" y="457.93" width="26.18" height="24.77"/></g><g class="cls-13"><rect class="cls-3" x="320" y="458.02" width="21.63" height="24.74"/></g><g class="cls-14"><rect class="cls-5" x="354.15" y="458.2" width="15.72" height="24.2"/></g><g class="cls-15"><rect class="cls-3" x="383.54" y="458.02" width="13.01" height="24.74"/></g><g class="cls-16"><rect class="cls-17" y="344.81" width="94.97" height="102.9"/></g><g class="cls-18"><rect class="cls-19" x="94.97" y="344.88" width="309.9" height="93.5"/></g><g class="cls-20"><rect class="cls-21" x="396.44" y="344.88" width="103.64" height="103.46"/></g><g class="cls-22"><rect class="cls-23" x="103.46" width="293.1" height="183.16"/></g><g class="cls-24"><rect class="cls-25" x="180.59" y="254.5" width="146.42" height="38.59"/></g><g class="cls-26"><rect class="cls-27" x="109.39" y="156.71" width="281.22" height="68.07"/></g><g class="cls-28"><rect class="cls-29" x="128.83" y="202.38" width="242.35" height="58.66"/></g><g class="cls-30"><rect class="cls-31" x="149.25" y="45.79" width="191.14" height="105.87"/></g><g class="cls-32"><rect class="cls-33" x="195.05" y="91.59" width="89.91" height="57.4"/></g></g></g></svg>