<svg xmlns="http://www.w3.org/2000/svg" xmlns:xlink="http://www.w3.org/1999/xlink" viewBox="0 0 500 519.68"><defs><style>.cls-1{fill:none;}.cls-2{clip-path:url(#clip-path);}.cls-3{fill:url(#linear-gradient);}.cls-4{clip-path:url(#clip-path-2);}.cls-5{clip-path:url(#clip-path-3);}.cls-6{clip-path:url(#clip-path-4);}.cls-7{fill:url(#linear-gradient-4);}.cls-8{clip-path:url(#clip-path-5);}.cls-9{clip-path:url(#clip-path-6);}.cls-10{fill:url(#linear-gradient-6);}.cls-11{clip-path:url(#clip-path-7);}.cls-12{fill:url(#linear-gradient-7);}.cls-13{clip-path:url(#clip-path-8);}.cls-14{clip-path:url(#clip-path-9);}.cls-15{clip-path:url(#clip-path-10);}.cls-16{clip-path:url(#clip-path-11);}.cls-17{clip-path:url(#clip-path-12);}.cls-18{clip-path:url(#clip-path-13);}.cls-19{fill:url(#linear-gradient-13);}.cls-20{clip-path:url(#clip-path-14);}.cls-21{clip-path:url(#clip-path-15);}</style><clipPath id="clip-path" transform="translate(0 0)"><polygon class="cls-1" points="48.96 0 0 73.44 250 365.29 104.47 90.15 95.83 73.81 96.05 73.44 139.14 0 48.96 0"/></clipPath><linearGradient id="linear-gradient" x1="-7883.08" y1="3300.78" x2="-7880.29" y2="3300.78" gradientTransform="matrix(202.41, 0, 0, -202.41, 1595579.24, 668296.61)" gradientUnits="userSpaceOnUse"><stop offset="0" stop-color="#bc955e"/><stop offset="0.28" stop-color="#987041"/><stop offset="0.59" stop-color="#f4c37f"/><stop offset="0.63" stop-color="#fecc86"/><stop offset="0.82" stop-color="#c89b62"/><stop offset="1" stop-color="#987041"/></linearGradient><clipPath id="clip-path-2" transform="translate(0 0)"><polygon class="cls-1" points="360.86 0 403.96 73.44 404.17 73.81 395.52 90.15 250 365.29 500 73.44 451.04 0 360.86 0"/></clipPath><clipPath id="clip-path-3" transform="translate(0 0)"><polygon class="cls-1" points="250 0 157.38 0 114.29 73.44 192.57 73.44 250 365.29 307.43 73.44 385.71 73.44 342.62 0 250 0"/></clipPath><clipPath id="clip-path-4" transform="translate(0 0)"><path class="cls-1" d="M42.76,436.67l-8,26.83c-2.14,7.18-4.1,14.63-5.68,22.18h-.28c-1.49-7.83-3.45-15-5.59-22.46l-7.64-26.55H0l20.13,62.79H36.7l21.15-62.79Z"/></clipPath><linearGradient id="linear-gradient-4" x1="-7883.08" y1="3299.88" x2="-7880.29" y2="3299.88" gradientTransform="matrix(202.41, 0, 0, -202.41, 1595579.24, 668399.19)" xlink:href="#linear-gradient"/><clipPath id="clip-path-5" transform="translate(0 0)"><rect class="cls-1" x="64.56" y="436.67" width="14.26" height="62.79"/></clipPath><clipPath id="clip-path-6" transform="translate(0 0)"><path class="cls-1" d="M105.37,513.34a6.44,6.44,0,0,0,6.52,6.34,6.32,6.32,0,0,0,6.24-6.34,6.22,6.22,0,0,0-6.24-6.42,6.34,6.34,0,0,0-6.52,6.42"/></clipPath><linearGradient id="linear-gradient-6" x1="-7883.08" y1="3299.74" x2="-7880.29" y2="3299.74" gradientTransform="matrix(202.41, 0, 0, -202.41, 1595579.24, 668415.45)" xlink:href="#linear-gradient"/><clipPath id="clip-path-7" transform="translate(0 0)"><polygon class="cls-1" points="105.55 421.86 96.24 433.32 106.11 433.32 110.77 427.54 110.95 427.54 115.71 433.32 125.68 433.32 116.17 421.86 105.55 421.86"/></clipPath><linearGradient id="linear-gradient-7" x1="-7883.08" y1="3300.01" x2="-7880.29" y2="3300.01" gradientTransform="matrix(202.41, 0, 0, -202.41, 1595579.24, 668384.64)" xlink:href="#linear-gradient"/><clipPath id="clip-path-8" transform="translate(0 0)"><polygon class="cls-1" points="91.11 436.67 91.11 499.46 131.17 499.46 131.17 487.82 105.37 487.82 105.37 472.91 128.47 472.91 128.47 461.36 105.37 461.36 105.37 448.32 129.87 448.32 129.87 436.67 91.11 436.67"/></clipPath><clipPath id="clip-path-9" transform="translate(0 0)"><polygon class="cls-1" points="136.57 436.67 136.57 448.6 153.44 448.6 153.44 499.46 167.69 499.46 167.69 448.6 184.83 448.6 184.83 436.67 136.57 436.67"/></clipPath><clipPath id="clip-path-10" transform="translate(0 0)"><polygon class="cls-1" points="202.81 436.67 202.81 448.6 219.68 448.6 219.68 499.46 233.93 499.46 233.93 448.6 251.07 448.6 251.07 436.67 202.81 436.67"/></clipPath><clipPath id="clip-path-11" transform="translate(0 0)"><polygon class="cls-1" points="296.25 436.67 296.25 460.8 272.87 460.8 272.87 436.67 258.62 436.67 258.62 499.46 272.87 499.46 272.87 473.19 296.25 473.19 296.25 499.46 310.42 499.46 310.42 436.67 296.25 436.67"/></clipPath><clipPath id="clip-path-12" transform="translate(0 0)"><path class="cls-1" d="M343.21,459.4c1-3.63,2-8.38,2.89-12.11h.18c.94,3.73,2.05,8.39,3.17,12.11l3.91,13.32H339.48Zm-5.78-22.73-19.19,62.79H333l4.47-16.12h18l4.85,16.12h15.27l-19.47-62.79Z"/></clipPath><clipPath id="clip-path-13" transform="translate(0 0)"><polygon class="cls-1" points="330.91 421.86 342.27 433.13 353.64 433.13 345.82 421.86 330.91 421.86"/></clipPath><linearGradient id="linear-gradient-13" x1="-7883.08" y1="3300.01" x2="-7880.29" y2="3300.01" gradientTransform="matrix(202.41, 0, 0, -202.41, 1595579.24, 668384.61)" xlink:href="#linear-gradient"/><clipPath id="clip-path-14" transform="translate(0 0)"><path class="cls-1" d="M422.86,436.67V455a230.87,230.87,0,0,0,1.22,26.18h-.29a181.18,181.18,0,0,0-10.25-21.52l-13-23H383.92v62.79h13V480.55c0-10.24-.18-19.1-.56-27.39l.28-.09a236.39,236.39,0,0,0,10.9,22.17L421,499.46h14.9V436.67Z"/></clipPath><clipPath id="clip-path-15" transform="translate(0 0)"><polygon class="cls-1" points="485.84 436.67 485.84 460.8 462.46 460.8 462.46 436.67 448.2 436.67 448.2 499.46 462.46 499.46 462.46 473.19 485.84 473.19 485.84 499.46 500 499.46 500 436.67 485.84 436.67"/></clipPath></defs><g id="Layer_2" data-name="Layer 2"><g id="Layer_1-2" data-name="Layer 1"><g class="cls-2"><rect class="cls-3" width="250" height="365.29"/></g><g class="cls-4"><rect class="cls-3" x="250" width="250" height="365.29"/></g><g class="cls-5"><rect class="cls-3" x="114.29" width="271.43" height="365.29"/></g><g class="cls-6"><rect class="cls-7" y="436.67" width="57.85" height="62.79"/></g><g class="cls-8"><rect class="cls-7" x="64.56" y="436.67" width="14.26" height="62.79"/></g><g class="cls-9"><rect class="cls-10" x="105.37" y="506.92" width="12.76" height="12.76"/></g><g class="cls-11"><rect class="cls-12" x="96.24" y="421.86" width="29.44" height="11.46"/></g><g class="cls-13"><rect class="cls-7" x="91.11" y="436.67" width="40.06" height="62.79"/></g><g class="cls-14"><rect class="cls-7" x="136.57" y="436.67" width="48.26" height="62.79"/></g><g class="cls-15"><rect class="cls-7" x="202.81" y="436.67" width="48.26" height="62.79"/></g><g class="cls-16"><rect class="cls-7" x="258.62" y="436.67" width="51.8" height="62.79"/></g><g class="cls-17"><rect class="cls-7" x="318.24" y="436.67" width="57.3" height="62.79"/></g><g class="cls-18"><rect class="cls-19" x="330.91" y="421.86" width="22.73" height="11.27"/></g><g class="cls-20"><rect class="cls-7" x="383.92" y="436.67" width="51.98" height="62.79"/></g><g class="cls-21"><rect class="cls-7" x="448.2" y="436.67" width="51.8" height="62.79"/></g></g></g></svg>